<?xml version="1.0" encoding="UTF-8"?><svg xmlns="http://www.w3.org/2000/svg" viewBox="0 0 221.51 155.3"><g id="a"/><g id="b"><g id="c"><g><g><path d="M50.33,128.49c-4.02,2.76-9.63,4.22-15.35,1.77-9.91-4.18-7.42-17.91-1.94-24.82-.63-2.45-.95-6.12-.16-9.04,.16-.67,.99-.91,.79,.2-.43,2.49-.08,5.37,.32,7.5,4.26-5.48,10.18-7.93,16.41-7.22,15.39,1.74,9.79,20.72-6.47,18.35-4.1-.59-7.73-2.45-9.79-6.71-1.42,1.85-7.89,17.83,2.37,20.99,4.22,1.26,9.31,.67,13.22-1.66,3.43-2.01,4.81-4.58,6.47-7.97,.32-.67,.87-.39,.47,.4-1.7,3.47-3,5.84-6.35,8.21Zm-15.39-21.23c1.77,4.54,5.29,6.55,9.59,7.02,14.25,1.58,17.76-14.24,6.24-15.9-5.88-.87-11.92,2.92-15.82,8.88Z" style="fill:#fff;"/><path d="M64.58,127.58c-1.3,.08-3.16-.95-1.97-5.09-.63,1.02-1.7,2.6-2.84,3.71-4.54,4.34-7.53-2.57-1.58-9.71,2.37-2.8,6.9-4.26,9.15-1.82,.55,.59,.24,1.26-.43,1.14-.43-1.46-1.89-1.77-3.35-.99-1.77,.99-3.83,3.32-5.25,5.64-.32,.55-1.38,2.49-1.62,3.98-.39,2.76,1.77,2.45,3.63,.24,1.38-1.66,2.48-3.59,3.51-5.52,.87-1.66,1.42-2.6,2.68-2.53,.51,.04,1.11,.28,1.66,.16-.83,.83-3.16,4.97-3.67,7.38-.32,1.62-.12,2.37,.39,2.37,1.66,.08,4.26-4.93,5.09-6.63,.36-.71,.95-.47,.55,.32-1.18,2.41-3.59,7.14-5.96,7.34Z" style="fill:#fff;"/><path d="M72.43,127.27c-.55,.24-1.1,.39-1.62,.39-4.77,0-3.87-5.49-1.97-5.56,1.07-2.01,2.37-4.57,3.4-6.83,.71-1.54,1.89-3.2,3.28-3.39,.59-.08,1.06,0,1.46,.2,.71,.36,.55,1.03-.16,.67-.4-.16-.87-.24-1.26-.04-1.82,.87-1.42,3.59-.83,5.01,.63,1.5,1.5,2.92,1.42,4.66-.08,1.54-1.26,3.35-2.8,4.38l.28,.04c1.34,.2,2.56-.63,3.55-1.82,.91-1.1,2.13-3.55,2.96-5.17,.2-.39,.79-.16,.59,.24-1.46,3.27-3.83,8.56-8.29,7.22Zm-2.68-3.39c-1.26,1.26-.75,3.12,.79,3.12,.27,0,.55-.04,.79-.16-.83-.51-1.5-1.46-1.58-2.96Zm3.47-9c-1.07,2.13-2.76,5.56-3.71,7.3,0,0,.87-.04,.83,1.26-.08,1.5,.75,2.6,1.66,3.04,.87-.67,1.62-2.01,1.73-4.1,.12-2.49-.83-5.72-.51-7.5Z" style="fill:#fff;"/><path d="M88.49,127.58c-1.3,.08-3.16-.95-1.97-5.09-.63,1.02-1.7,2.6-2.84,3.71-4.54,4.34-7.53-2.57-1.58-9.71,2.37-2.8,6.9-4.26,9.15-1.82,.55,.59,.24,1.26-.43,1.14-.43-1.46-1.89-1.77-3.35-.99-1.77,.99-3.83,3.32-5.25,5.64-.32,.55-1.38,2.49-1.62,3.98-.39,2.76,1.77,2.45,3.63,.24,1.38-1.66,2.48-3.59,3.51-5.52,.87-1.66,1.42-2.6,2.68-2.53,.51,.04,1.11,.28,1.66,.16-.83,.83-3.16,4.97-3.67,7.38-.32,1.62-.12,2.37,.39,2.37,1.66,.08,4.26-4.93,5.09-6.63,.36-.71,.95-.47,.55,.32-1.18,2.41-3.59,7.14-5.96,7.34Z" style="fill:#fff;"/></g><g><path d="M104.42,148.11c0,2.2-.65,3.94-1.96,5.24-1.3,1.3-3.07,1.95-5.29,1.95-.98,0-2.16-.18-3.53-.53-1.25-.33-2.27-.5-3.07-.5-.07-1.88-.2-3.75-.4-5.63,0-.18,.16-.27,.49-.27,.23,0,.38,.09,.43,.27,.6,2.05,1.36,3.5,2.29,4.34,.93,.84,2.23,1.26,3.91,1.26,1.33,0,2.37-.39,3.1-1.16,.73-.77,1.1-1.86,1.1-3.25,0-.89-.32-1.73-.96-2.49-.64-.77-2-1.76-4.09-2.97-2.4-1.38-3.97-2.55-4.71-3.51-.74-.96-1.11-2.03-1.11-3.2,0-1.8,.67-3.32,2-4.56,1.33-1.24,3.02-1.86,5.07-1.86,.77,0,1.66,.11,2.67,.32,.94,.19,1.75,.28,2.44,.28,.13,1.94,.31,3.66,.53,5.13,0,.18-.14,.26-.43,.26-.31,0-.48-.09-.51-.26-.37-1.66-.92-2.85-1.66-3.58-.74-.73-1.76-1.09-3.07-1.09-1.24,0-2.23,.36-2.96,1.09-.73,.73-1.1,1.71-1.1,2.95,0,.79,.31,1.53,.92,2.25,.61,.71,1.95,1.66,4,2.86,2.42,1.41,4.01,2.59,4.76,3.54,.75,.95,1.13,1.99,1.13,3.13Z" style="fill:#fff;"/><path d="M117.42,155.13c-.61,0-1.15-.15-1.6-.45-.46-.3-.77-.71-.93-1.23-1.18,1.21-2.73,1.82-4.64,1.82-.99,0-1.8-.31-2.44-.92-.63-.61-.94-1.38-.94-2.29,0-2.26,2.68-4.1,8.05-5.5l.1-2.58v-.08c0-.79-.2-1.42-.59-1.89s-.91-.7-1.57-.7-1.2,.16-1.66,.47c-.45,.31-.68,.71-.7,1.18-.01,.71-.2,1.26-.55,1.66-.36,.4-.83,.6-1.43,.6-.35,0-.64-.11-.86-.32-.22-.21-.33-.49-.33-.85,0-.85,.77-1.74,2.32-2.67,1.54-.93,2.98-1.4,4.31-1.4,1.19,0,2.16,.35,2.9,1.06,.74,.7,1.11,1.66,1.11,2.85v.2l-.25,7.49v.12c0,1.16,.38,1.74,1.13,1.74,.36,0,.79-.22,1.27-.66l.11-.03c.09,0,.17,.06,.25,.17,.08,.11,.12,.24,.12,.37,0,.32-.33,.71-1,1.17-.67,.46-1.39,.7-2.18,.7Zm-2.53-7.47c-3.21,.73-4.82,1.94-4.82,3.62,0,1.57,.6,2.36,1.82,2.36,.58,0,1.16-.15,1.72-.44,.57-.29,.95-.66,1.15-1.09l.13-4.45Z" style="fill:#fff;"/><path d="M138.33,154.31c0,.31-.09,.46-.26,.46-.44,0-.98-.03-1.62-.1-.71-.07-1.33-.1-1.87-.1s-1.19,.03-1.9,.1c-.65,.07-1.19,.1-1.63,.1-.18,0-.26-.15-.26-.46,0-.28,.09-.43,.26-.45,.76-.09,1.26-.3,1.5-.65,.24-.34,.36-1.06,.36-2.15v-5.53c0-1.24-.24-2.14-.73-2.72-.49-.57-1.24-.86-2.25-.86-.64,0-1.21,.12-1.7,.36-.49,.24-1.02,.67-1.58,1.29v7.45c0,1.1,.12,1.81,.36,2.15,.24,.34,.74,.56,1.5,.65,.18,.02,.27,.17,.27,.45,0,.31-.09,.46-.27,.46-.45,0-1-.03-1.66-.1-.72-.07-1.35-.1-1.89-.1s-1.15,.03-1.85,.1c-.65,.07-1.2,.1-1.66,.1-.18,0-.27-.15-.27-.46,0-.28,.09-.43,.27-.45,.95-.12,1.56-.35,1.84-.68,.28-.34,.41-1.04,.41-2.11v-6.12c0-.88-.11-1.46-.34-1.74-.23-.27-.73-.46-1.52-.54-.18,0-.26-.15-.26-.44,0-.27,.09-.41,.26-.41,1.09-.28,2-.59,2.73-.94,.73-.35,1.19-.63,1.38-.85,.11-.13,.23-.2,.36-.2,.31,0,.46,.09,.46,.26l-.13,2.09c1.59-1.48,3.06-2.22,4.43-2.22,1.5,0,2.67,.43,3.51,1.29,.84,.86,1.26,2.02,1.26,3.48v6.33c0,1.08,.14,1.79,.41,2.12,.27,.33,.88,.56,1.82,.68,.17,.02,.26,.17,.26,.45Z" style="fill:#fff;"/><path d="M152.48,142.58c0,.91-.45,1.36-1.36,1.36-.39,0-.7-.08-.95-.25-.25-.17-.5-.52-.75-1.08-.3-.65-.62-1.08-.95-1.28-.34-.2-.77-.3-1.32-.3-1.33,0-2.35,.55-3.06,1.66-.7,1.11-1.05,2.73-1.05,4.86,0,1.78,.44,3.21,1.32,4.3,.88,1.09,2.07,1.63,3.54,1.63,1.68,0,3.01-.52,3.99-1.57l.08-.03c.1,0,.2,.06,.29,.19,.09,.13,.14,.27,.14,.42,0,.22-.32,.6-.97,1.14s-1.35,.95-2.12,1.23c-.77,.27-1.58,.41-2.44,.41-1.98,0-3.67-.73-5.08-2.18-1.41-1.45-2.11-3.29-2.11-5.51s.74-4.01,2.21-5.46c1.47-1.44,3.22-2.16,5.24-2.16,1.49,0,2.75,.26,3.78,.77,1.03,.51,1.55,1.13,1.55,1.85Z" style="fill:#fff;"/><path d="M172.07,154.31c0,.31-.09,.46-.27,.46-.44,0-.99-.03-1.64-.1-.71-.07-1.33-.1-1.86-.1s-1.19,.03-1.91,.1c-.66,.07-1.2,.1-1.65,.1-.18,0-.27-.15-.27-.46,0-.28,.09-.43,.27-.45,.76-.09,1.26-.3,1.5-.65,.24-.34,.36-1.06,.36-2.15v-5.53c0-2.39-1.08-3.58-3.25-3.58-1.37,0-2.56,.55-3.55,1.66v7.45c0,.99,.14,1.69,.43,2.07,.29,.39,.85,.63,1.69,.73,.18,.02,.27,.17,.27,.45,0,.31-.09,.46-.27,.46-.45,0-1.04-.03-1.77-.1-.82-.07-1.49-.1-2.03-.1s-1.18,.03-1.89,.1c-.63,.07-1.17,.1-1.62,.1-.18,0-.26-.15-.26-.46,0-.28,.09-.43,.26-.45,.93-.1,1.53-.32,1.8-.65,.28-.34,.42-1.05,.42-2.14v-15.37c0-.89-.11-1.48-.32-1.75-.21-.28-.71-.46-1.5-.55-.18-.02-.27-.16-.27-.42,0-.29,.09-.44,.26-.44,1.88-.44,3.28-1.03,4.18-1.76,.17-.13,.3-.2,.41-.2,.31,0,.46,.09,.46,.27-.18,1.81-.27,3.73-.27,5.76v5.61c1.58-1.5,3.15-2.25,4.69-2.25s2.81,.43,3.71,1.29c.9,.86,1.36,2.02,1.36,3.48v6.33c0,1.08,.14,1.79,.42,2.13,.28,.34,.89,.56,1.83,.67,.18,.02,.27,.17,.27,.45Z" style="fill:#fff;"/><path d="M188.77,147.71c0,2.2-.71,4-2.14,5.42-1.43,1.42-3.29,2.13-5.56,2.13s-4.13-.71-5.57-2.14c-1.44-1.42-2.16-3.23-2.16-5.41s.73-4.07,2.17-5.54c1.45-1.47,3.3-2.21,5.56-2.21s4.12,.73,5.55,2.2c1.44,1.47,2.15,3.32,2.15,5.55Zm-3.34-.03c0-2.02-.39-3.64-1.17-4.84-.78-1.21-1.85-1.81-3.2-1.81s-2.41,.61-3.19,1.82c-.79,1.21-1.18,2.82-1.18,4.84s.39,3.59,1.16,4.76c.77,1.18,1.84,1.76,3.21,1.76s2.44-.58,3.21-1.75c.77-1.16,1.16-2.76,1.16-4.78Z" style="fill:#fff;"/></g><g><path d="M101.61,106.04c0,.29-.08,.43-.25,.43-.88,.1-1.55,.24-2,.41-.46,.17-.77,.41-.95,.7-.18,.29-.27,.8-.27,1.53v13.75c0,1.93-.42,3.79-1.27,5.6-.85,1.81-1.96,3.26-3.35,4.35-1.39,1.09-2.84,1.64-4.33,1.64-.87,0-1.56-.18-2.06-.55-.51-.37-.76-.86-.76-1.47,0-.58,.21-1.06,.64-1.44,.42-.38,.97-.57,1.63-.57,.33,0,.63,.07,.88,.2,.26,.13,.57,.41,.93,.84,.49,.59,.95,.89,1.38,.89,.95,0,1.71-.75,2.28-2.25,.57-1.5,.85-3.62,.85-6.36v-14.62c0-.71-.08-1.22-.26-1.52-.17-.29-.48-.53-.94-.71-.46-.18-1.12-.32-2-.42-.17,0-.25-.14-.25-.43s.08-.43,.25-.43c.69,0,1.52,.03,2.47,.09,.91,.06,1.68,.09,2.32,.09s1.41-.03,2.33-.09c.96-.06,1.79-.09,2.48-.09,.17,0,.25,.14,.25,.43Z" style="fill:#fff;"/><path d="M108.84,126.78c0,.29-.08,.43-.25,.43-.42,0-.97-.03-1.63-.1-.74-.06-1.37-.09-1.87-.09s-1.13,.03-1.86,.09c-.65,.06-1.19,.1-1.61,.1-.17,0-.25-.15-.25-.43,0-.26,.08-.4,.25-.42,.88-.11,1.45-.33,1.7-.64,.26-.31,.38-.97,.38-1.98v-5.74c0-.83-.11-1.37-.32-1.63s-.67-.43-1.39-.51c-.17,0-.25-.14-.25-.41,0-.25,.08-.38,.25-.38,1.08-.28,1.97-.58,2.66-.89,.69-.32,1.13-.58,1.3-.79,.1-.12,.22-.18,.34-.18,.29,0,.43,.08,.43,.25-.17,2.32-.25,4.12-.25,5.41v4.88c0,1.01,.13,1.68,.38,1.99,.26,.31,.83,.52,1.73,.64,.17,.02,.25,.16,.25,.42Zm-2.17-18.78c0,.43-.16,.81-.47,1.13-.32,.32-.7,.48-1.14,.48s-.83-.16-1.14-.48c-.32-.32-.48-.7-.48-1.13,0-.46,.15-.84,.47-1.15,.31-.31,.69-.47,1.15-.47s.82,.15,1.14,.47c.32,.31,.47,.69,.47,1.15Z" style="fill:#fff;"/><path d="M134.79,126.78c0,.29-.08,.43-.25,.43-.41,0-.92-.03-1.52-.1-.66-.06-1.25-.09-1.76-.09s-1.09,.03-1.75,.09c-.6,.06-1.11,.1-1.53,.1-.17,0-.25-.15-.25-.43,0-.26,.08-.4,.25-.42,.7-.08,1.16-.28,1.38-.61,.22-.32,.33-.99,.33-2.02v-5.19c0-1.17-.22-2.02-.67-2.56-.45-.53-1.14-.8-2.09-.8-1.25,0-2.28,.42-3.1,1.27v7.27c0,1.02,.11,1.7,.34,2.02,.23,.32,.69,.52,1.39,.61,.17,.02,.25,.16,.25,.42,0,.29-.08,.43-.25,.43-.42,0-.9-.03-1.45-.1-.6-.06-1.15-.09-1.65-.09s-1.08,.03-1.7,.09c-.55,.06-1.03,.1-1.45,.1-.17,0-.25-.15-.25-.43,0-.26,.08-.4,.25-.42,.72-.08,1.19-.28,1.41-.61,.22-.32,.33-.99,.33-2.02v-5.19c0-1.16-.23-2.01-.68-2.55-.46-.54-1.16-.81-2.12-.81-.6,0-1.14,.11-1.6,.34s-.96,.63-1.49,1.21v6.99c0,1.02,.11,1.7,.33,2.02,.22,.32,.69,.52,1.41,.61,.17,.02,.25,.16,.25,.42,0,.29-.08,.43-.25,.43-.42,0-.94-.03-1.55-.1-.67-.06-1.26-.09-1.77-.09s-1.11,.03-1.77,.09c-.59,.06-1.1,.1-1.52,.1-.17,0-.25-.15-.25-.43,0-.26,.08-.4,.25-.42,.88-.11,1.45-.33,1.7-.64,.26-.31,.38-.97,.38-1.98v-5.74c0-.83-.11-1.37-.32-1.63-.21-.26-.67-.43-1.39-.51-.17,0-.25-.14-.25-.41,0-.25,.08-.38,.25-.38,1.02-.26,1.87-.55,2.55-.88,.68-.33,1.11-.59,1.29-.8,.1-.12,.22-.18,.34-.18,.29,0,.43,.08,.43,.25l-.13,1.96c1.5-1.39,2.89-2.08,4.18-2.08,1.97,0,3.31,.76,4.02,2.27,1.57-1.51,3.1-2.27,4.6-2.27,1.41,0,2.51,.41,3.31,1.21,.79,.81,1.19,1.89,1.19,3.26v5.93c0,1.01,.13,1.68,.38,1.99,.25,.31,.82,.52,1.7,.64,.17,.02,.25,.16,.25,.42Z" style="fill:#fff;"/><path d="M148.35,118.4c0,.29-.18,.43-.56,.43h-8.51c-.06,.56-.09,1.14-.09,1.74,0,1.67,.4,2.95,1.19,3.84,.79,.9,1.92,1.34,3.38,1.34,.73,0,1.48-.2,2.22-.59,.74-.39,1.35-.89,1.8-1.51l.08-.03c.1,0,.18,.06,.27,.17,.09,.11,.13,.25,.13,.4,0,.22-.33,.67-.99,1.36-.66,.69-1.38,1.22-2.16,1.58-.78,.36-1.59,.54-2.44,.54-1.86,0-3.43-.68-4.71-2.05-1.27-1.37-1.91-3.04-1.91-5.03s.62-3.75,1.87-5.15c1.25-1.41,2.83-2.11,4.75-2.11,1.6,0,2.95,.53,4.04,1.58,1.09,1.05,1.64,2.22,1.64,3.49Zm-2.83-1.37c0-.77-.27-1.42-.8-1.93-.53-.51-1.22-.77-2.06-.77-.8,0-1.49,.33-2.07,1-.58,.67-.98,1.54-1.19,2.63l4.32-.13c.65,0,1.11-.07,1.39-.18s.41-.32,.41-.62Zm1.62-9.64c0,.25-.1,.43-.28,.54l-5.16,3.18c-.09,.06-.19,.1-.28,.1-.1,0-.21-.06-.31-.19s-.15-.25-.15-.37c0-.14,.05-.24,.14-.33l4.4-4.15c.1-.1,.24-.15,.41-.15,.3,0,.58,.15,.85,.45,.26,.3,.4,.61,.4,.92Z" style="fill:#fff;"/><path d="M166.34,126.78c0,.29-.08,.43-.25,.43-.41,0-.92-.03-1.52-.1-.66-.06-1.24-.09-1.75-.09s-1.11,.03-1.78,.09c-.61,.06-1.12,.1-1.53,.1-.16,0-.25-.15-.25-.43,0-.26,.08-.4,.25-.42,.71-.08,1.18-.28,1.41-.61,.22-.32,.33-.99,.33-2.02v-5.19c0-1.16-.23-2.01-.68-2.55-.45-.54-1.16-.81-2.11-.81-.6,0-1.13,.11-1.59,.34-.46,.23-.95,.63-1.48,1.21v6.99c0,1.02,.11,1.7,.33,2.02,.22,.32,.69,.52,1.41,.61,.17,.02,.25,.16,.25,.42,0,.29-.08,.43-.25,.43-.42,0-.94-.03-1.55-.1-.67-.06-1.26-.09-1.77-.09s-1.08,.03-1.74,.09c-.61,.06-1.13,.1-1.55,.1-.17,0-.25-.15-.25-.43,0-.26,.08-.4,.25-.42,.89-.11,1.47-.33,1.72-.64,.26-.32,.39-.98,.39-1.98v-5.74c0-.83-.11-1.37-.32-1.63s-.69-.43-1.42-.51c-.17,0-.25-.14-.25-.41,0-.25,.08-.38,.25-.38,1.02-.26,1.88-.55,2.56-.88,.68-.33,1.11-.59,1.29-.8,.1-.12,.22-.18,.34-.18,.29,0,.43,.08,.43,.25l-.13,1.96c1.49-1.39,2.87-2.08,4.15-2.08,1.41,0,2.51,.41,3.29,1.21,.79,.81,1.19,1.89,1.19,3.26v5.93c0,1.01,.13,1.68,.38,1.99,.25,.31,.82,.52,1.7,.64,.17,.02,.25,.16,.25,.42Z" style="fill:#fff;"/><path d="M179.91,118.4c0,.29-.18,.43-.56,.43h-8.51c-.06,.56-.09,1.14-.09,1.74,0,1.67,.4,2.95,1.19,3.84,.79,.9,1.92,1.34,3.38,1.34,.73,0,1.48-.2,2.22-.59,.74-.39,1.35-.89,1.8-1.51l.08-.03c.1,0,.18,.06,.27,.17,.09,.11,.13,.25,.13,.4,0,.22-.33,.67-.99,1.36-.66,.69-1.38,1.22-2.16,1.58-.78,.36-1.59,.54-2.44,.54-1.86,0-3.43-.68-4.71-2.05-1.27-1.37-1.91-3.04-1.91-5.03s.62-3.75,1.87-5.15c1.25-1.41,2.83-2.11,4.75-2.11,1.6,0,2.95,.53,4.04,1.58,1.09,1.05,1.64,2.22,1.64,3.49Zm-2.83-1.37c0-.77-.27-1.42-.8-1.93-.53-.51-1.22-.77-2.06-.77-.8,0-1.49,.33-2.07,1-.58,.67-.98,1.54-1.19,2.63l4.32-.13c.65,0,1.11-.07,1.39-.18s.41-.32,.41-.62Z" style="fill:#fff;"/><path d="M194.59,123.32c-.61,1.57-1.04,2.87-1.29,3.9-.71-.13-2.51-.19-5.4-.19-3.07,0-4.9,.06-5.51,.19-.2,0-.3-.11-.3-.34l.05-.14,8.46-11.75h-3.76c-.65,0-1.28,.24-1.87,.73-.6,.49-1.01,1.09-1.25,1.82-.05,.17-.21,.25-.48,.25s-.39-.08-.39-.25c.68-1.77,1.11-3.06,1.29-3.87,.52,.13,2.07,.19,4.66,.19,3.01,0,4.79-.06,5.34-.19,.17,0,.25,.11,.25,.34l-.03,.15-8.42,11.7h4.66c.65,0,1.28-.24,1.88-.73,.6-.49,1.01-1.09,1.23-1.82,.05-.16,.22-.25,.5-.25,.26,0,.39,.08,.39,.25Z" style="fill:#fff;"/></g><path d="M107.11,57.28c-8.92,2.66-14,12.05-11.34,20.98,2.66,8.92,12.05,14,20.98,11.34,8.92-2.66,14-12.05,11.34-20.98-2.66-8.92-12.05-14-20.98-11.34Zm18.94,10.52l.11,.3c.45,1.28,.73,2.61,.83,3.95l-1.1,.08c-.09-1.24-.35-2.47-.77-3.66l-.1-.28,1.03-.39Zm-2.83,9.69c-.79-.08-1.4-.67-1.55-1.41l-7.46-1.83,.18-.6,7.63,.95c.36-.45,.94-.71,1.56-.65,.98,.1,1.69,.97,1.59,1.95-.1,.98-.97,1.69-1.95,1.59Zm1.46,2.07l-1.25,.18-.46-1.14,1.19-.07,.52,1.03Zm.29-9.61c.33,.92-.16,1.94-1.08,2.27-.75,.27-1.55,0-2.01-.61l-7.52,1.54-.09-.62,7.3-2.4c.14-.56,.55-1.05,1.13-1.25,.92-.33,1.94,.16,2.27,1.08Zm-2.03-1.88l.7-.96,1.13,.25-.66,1.08-1.17-.37Zm2.1,6.09l-.9-.83,1.04-.57,.91,.71-1.06,.69Zm-2.74-11.91l.23,.23c.96,.96,1.78,2.04,2.44,3.21l-.96,.54c-.61-1.08-1.38-2.09-2.26-2.98l-.21-.21,.77-.8Zm-.06,2.4c.69,.7,.69,1.82,0,2.51-.56,.56-1.41,.66-2.07,.3l-6.15,4.6-.34-.52,5.57-5.29c-.12-.57,.05-1.18,.49-1.62,.7-.69,1.82-.69,2.51,0Zm-13.29,20.14c-.29,.94-1.28,1.47-2.22,1.18-.94-.29-1.47-1.28-1.18-2.22,.23-.76,.93-1.24,1.68-1.25l3.24-6.96,.55,.3-2.41,7.3c.37,.45,.52,1.06,.33,1.66Zm-8.33-16.11c.79,.12,1.36,.74,1.48,1.49l7.36,2.2-.21,.59-7.57-1.33c-.39,.43-.97,.66-1.59,.57-.97-.15-1.64-1.06-1.49-2.02,.15-.97,1.06-1.64,2.02-1.49Zm-1.35-2.15l1.26-.11,.4,1.16h-1.19l-.47-1.05Zm4.12,.92c-.53,.22-1.17,.18-1.68-.16-.81-.55-1.03-1.65-.48-2.47,.55-.81,1.65-1.03,2.47-.48,.66,.44,.92,1.25,.7,1.97l5.71,5.13-.44,.44-6.28-4.44Zm8.19,16.12l-.04-7.68,.62,.03,.94,7.63c.52,.24,.92,.74,1.01,1.35,.14,.97-.53,1.87-1.5,2.02-.97,.14-1.87-.53-2.01-1.5-.11-.79,.31-1.52,.99-1.85Zm.62-12.74l-.62-.06-.55-7.67c-.51-.27-.88-.78-.94-1.4-.09-.98,.62-1.84,1.6-1.94,.98-.09,1.84,.63,1.94,1.6,.07,.79-.39,1.5-1.08,1.8l-.34,7.67Zm3.28-7.08c-.35-.46-.46-1.09-.25-1.67,.33-.92,1.35-1.4,2.28-1.07,.92,.33,1.4,1.35,1.07,2.28-.27,.75-.99,1.19-1.74,1.16l-3.59,6.79-.53-.32,2.78-7.17Zm5.32-.12l-1.21,.17,.22-1.17,1.13-.26-.13,1.26Zm-4.27-4.82l.3,.11c1.28,.46,2.48,1.09,3.58,1.86l-.64,.9c-1.02-.72-2.13-1.3-3.32-1.73l-.28-.1,.35-1.05Zm-1.16,.71l.42,1.19-1.03,.67-.3-1.15,.91-.71Zm-5.19-1.37c1.35-.13,2.71-.08,4.03,.15l-.19,1.09c-1.23-.21-2.48-.26-3.74-.14l-.3,.03-.13-1.1,.32-.03Zm-1.06,1.17l.89,.9-.64,1.04-.76-.91,.52-1.03Zm-1.01,4.49l2.97,7.08-.59,.21-3.78-6.7c-.58-.03-1.13-.33-1.45-.87-.5-.84-.22-1.93,.62-2.44,.84-.5,1.93-.22,2.44,.62,.41,.68,.29,1.52-.21,2.09Zm-4.27-3.51c1.17-.69,2.42-1.23,3.71-1.59l.29,1.07c-1.2,.33-2.36,.83-3.44,1.47l-.26,.16-.58-.94,.28-.17Zm-.46,1.51l1.19,.44-.13,1.22-1.08-.5,.03-1.16Zm-4.35,3.14c.76-1.13,1.66-2.14,2.68-3.02l.72,.84c-.94,.81-1.78,1.75-2.48,2.8l-.17,.25-.93-.6,.18-.27Zm-2.36,6.26c.21-1.34,.59-2.65,1.13-3.87l1.01,.45c-.5,1.14-.86,2.35-1.05,3.59l-.04,.3-1.1-.14,.05-.32Zm.63,6.98l-.09-.31c-.39-1.3-.6-2.64-.63-3.98l1.11-.03c.03,1.24,.23,2.49,.59,3.69l.09,.29-1.05,.34Zm.24-5.66l1.09-.64,.86,.88-1.07,.52-.88-.75Zm2.14,1.36c.76-.23,1.55,.09,1.97,.71l7.59-1.16,.06,.62-7.41,2.03c-.17,.55-.6,1.02-1.19,1.19-.94,.28-1.93-.25-2.21-1.19-.28-.94,.25-1.93,1.2-2.21Zm-.41,3.77l1.15,.42-.75,.93-1.11-.31,.71-1.04Zm2.61,7.32l-.24-.21c-1-.91-1.88-1.95-2.6-3.09l.93-.59c.67,1.05,1.48,2.01,2.41,2.86l.22,.2-.73,.83Zm-.06-2.4c-.73-.66-.78-1.78-.12-2.51,.54-.59,1.37-.73,2.06-.41l5.91-4.91,.37,.5-5.3,5.57c.14,.56,.01,1.18-.41,1.64-.66,.73-1.78,.78-2.51,.12Zm1.47,.93l1.2-.23-.16,1.18-1.11,.31,.07-1.26Zm4.51,4.59l-.31-.09c-1.3-.4-2.53-.96-3.67-1.68l.59-.93c1.05,.66,2.2,1.19,3.4,1.56l.29,.09-.3,1.06Zm1.12-.76l-.47-1.17,.99-.72,.36,1.13-.87,.76Zm5.25,1.1c-1.34,.2-2.7,.21-4.03,.05l.13-1.1c1.24,.15,2.49,.14,3.74-.05l.3-.05,.18,1.09-.32,.05Zm1-1.22l-.93-.86,.59-1.08,.81,.87-.46,1.06Zm.68-2.44c-.44-.66-.37-1.51,.1-2.09l-3.32-6.92,.58-.24,4.11,6.5c.58,0,1.15,.27,1.49,.79,.54,.82,.32,1.92-.5,2.46-.82,.54-1.92,.32-2.46-.5Zm4.54,1.2c-1.13,.75-2.35,1.35-3.63,1.77l-.35-1.05c1.18-.39,2.31-.94,3.36-1.64l.25-.17,.63,.91-.27,.18Zm-.82-1.91l.07-1.22,1.1,.44,.03,1.16-1.21-.38Zm.77-2.12c-.68-.41-.98-1.2-.8-1.94l-5.96-4.84,.42-.46,6.49,4.12c.52-.25,1.15-.24,1.69,.08,.84,.51,1.11,1.6,.6,2.44-.51,.84-1.6,1.11-2.44,.6Zm4.62-.86c-.7,1.16-1.55,2.22-2.52,3.15l-.76-.8c.9-.86,1.69-1.84,2.34-2.92l.15-.26,.96,.55-.16,.28Zm2.04-6.37c-.14,1.35-.45,2.67-.93,3.92l-1.03-.4c.45-1.16,.74-2.39,.87-3.64l.03-.3,1.1,.09-.03,.32Z" style="fill:#fff;"/><path d="M139.26,46.85l20.08-1.03c-2.49,2.7-4.96,5.42-7.4,8.16,10.82-9.63,21.31-19.62,31.68-29.73,12.27,9.51,24.75,18.74,37.9,27.02-11.8-10.68-24.39-20.43-37.18-29.89l-.96-.71-.82,.84c-7.77,7.93-15.47,15.93-23,24.1l-22.59-2.71c-7.74-13.28-15.56-26.51-23.42-39.71l-1.88-3.17c-7.38,12.47-14.84,24.86-22.11,37.37-.92,1.57-2.01,3.43-3.2,5.49l-23.82,2.85c-7.71-8.38-15.6-16.58-23.57-24.72l-.82-.84-.96,.72C24.39,30.33,11.8,40.08,0,50.76c13.14-8.27,25.63-17.51,37.9-27.02,10.37,10.11,20.86,20.1,31.68,29.73-2.26-2.53-4.55-5.05-6.85-7.54l21.2,1.09c-4.78,8.24-10.43,18.05-13.91,24.12-14.14,.32-28.92,.75-43.05,1.35,3.98,.17,8.01,.32,12.06,.47v13.42h1.03c.26,1.22,1.18,2.87,3.4,2.87h0l.33,.02c2.26,0,3.18-1.65,3.45-2.87h.86c.27,1.22,1.19,2.85,3.39,2.85h0l.33,.02c2.26,0,3.18-1.65,3.45-2.87h.89c.27,1.22,1.19,2.85,3.39,2.85h0l.33,.02c2.25,0,3.18-1.65,3.44-2.87h.86c.27,1.22,1.19,2.85,3.39,2.85h0l.33,.02c1.97,0,2.93-1.26,3.31-2.39v3.31c0,.06-.12,1.6,.95,2.73,.71,.76,1.75,1.15,3.1,1.15,.04,0,.08,0,.13,0,4.32-.08,4.68-3.53,4.69-3.62v-11.59c.71,.72,1.72,1.09,3.03,1.09,.04,0,.08,0,.13,0,4.32-.08,4.68-3.53,4.69-3.62v-11.31c.71,.69,1.7,1.05,2.98,1.05,.04,0,.08,0,.12,0,4.32-.08,4.68-3.53,4.69-3.62v-12.13c.71,.69,1.7,1.04,2.98,1.04,.04,0,.08,0,.12,0,4.32-.08,4.68-3.53,4.69-3.62V21.97c.19-.31,.37-.61,.55-.92l.03,.49c-.06,.41-1.33,9.7,2.62,12.31-.41,.8-.6,2.03,.4,3.26,.41,.51,.85,.85,1.2,1.12,.72,.56,.96,.75,.7,1.7-.11,.25-1.04,2.46-.09,3.94,.5,.76,1.37,1.15,2.6,1.15h.21c1.22,0,2.1-.39,2.61-1.15,.95-1.42,.17-3.53,.02-3.92-.26-.97-.02-1.16,.69-1.72,.35-.27,.79-.62,1.2-1.13,1.01-1.23,.81-2.46,.4-3.26,3.95-2.61,2.68-11.89,2.63-12.21v-.47c.22,.35,.43,.7,.64,1.05v25.53s.37,3.5,4.69,3.57c.04,0,.09,0,.13,0,1.28,0,2.27-.36,2.98-1.05v12.18s.37,3.49,4.69,3.57c.04,0,.08,0,.13,0,1.28,0,2.27-.36,2.98-1.05v11.36s.37,3.49,4.69,3.57c.04,0,.08,0,.13,0,1.3,0,2.32-.37,3.03-1.09v11.65s.37,3.49,4.69,3.57c.04,0,.08,0,.13,0,1.34,0,2.39-.39,3.1-1.15,1.06-1.13,.95-2.67,.95-2.68v-3.36c.39,1.13,1.35,2.39,3.35,2.39h0l.24-.02c2.24,0,3.17-1.64,3.44-2.85h.86c.26,1.22,1.2,2.87,3.49,2.87h0l.24-.02c2.24,0,3.17-1.64,3.44-2.85h.89c.26,1.22,1.2,2.87,3.49,2.87h0l.24-.02c2.24,0,3.17-1.64,3.44-2.85h.86c.26,1.22,1.2,2.87,3.49,2.87h0l.24-.02c2.26,0,3.18-1.65,3.45-2.87h1.03v-13.22c4.05-.14,8.07-.28,12-.43-13.96-.54-29.12-1.01-43.08-1.3-4.65-8.21-9.37-16.39-14.11-24.55ZM47.06,85.21h-.9l-.04,.56c-.02,.24-.22,2.32-2.29,2.32l-.33-.02c-2.12,0-2.32-2.08-2.34-2.32l-.04-.56h-.91v-11.24l6.84,.02v11.25Zm8.04,0h-.91l-.04,.56c-.02,.24-.22,2.32-2.29,2.32l-.33-.02c-2.12,0-2.32-2.08-2.33-2.32l-.04-.56h-.9v-11.24l6.84,.02v11.25Zm8.05,0h-.9l-.04,.56c-.02,.24-.22,2.32-2.29,2.32l-.33-.02c-2.12,0-2.32-2.08-2.34-2.32l-.04-.56h-.91v-11.24l6.84,.02v11.25Zm8.04,0h-.91l-.04,.56c-.02,.24-.22,2.32-2.29,2.32l-.33-.02c-2.12,0-2.32-2.08-2.34-2.32l-.04-.56h-.9v-11.24l6.84,.02v11.25Zm4.18,7.67c-1.06,0-1.83-.24-2.33-.76-.7-.74-.63-1.82-.63-1.87v-16.64l6.48-10.81v27.6c0,.1-.29,2.43-3.52,2.49Zm7.84-14.13c-1.01,.01-1.83-.24-2.33-.76-.7-.74-.63-1.82-.63-1.87v-16.18c2.15-3.47,4.31-6.96,6.48-10.48v26.8c0,.1-.29,2.43-3.52,2.49Zm7.79-13.89c-1.02,0-1.83-.24-2.33-.76-.7-.74-.63-1.82-.63-1.87v-14.91c2.16-3.52,4.32-7.05,6.48-10.58v25.63c0,.1-.29,2.43-3.52,2.49Zm7.79-14.71c-1.04,0-1.83-.24-2.33-.76-.7-.74-.63-1.82-.63-1.87v-12.93c2.18-3.57,4.33-7.12,6.48-10.66v23.73c0,.1-.29,2.43-3.52,2.49Zm16.77-17.06l-.78,.33,.58,.62s.98,1.08-.03,2.31c-.33,.41-.68,.68-1.01,.94-.78,.61-1.58,1.24-1.09,3l.02,.07c.2,.48,.65,2.03,.11,2.84-.28,.41-.82,.62-1.62,.62h-.21c-.8,0-1.33-.2-1.6-.61-.52-.79-.05-2.3,.2-2.89,.5-1.79-.3-2.43-1.08-3.04-.34-.26-.68-.53-1.01-.94-.97-1.19-.12-2.21-.03-2.31l.58-.62-.78-.33c-3.21-1.37-2.92-8.68-2.53-11.5l-.15-2.3c2.19-3.62,4.37-7.23,6.5-10.77,2.17,3.6,4.35,7.18,6.53,10.77l-.06,2.42c.38,2.7,.68,10.01-2.54,11.38Zm11.41,16.27c-.5,.52-1.31,.73-2.33,.76-3.23-.06-3.51-2.39-3.52-2.43V24.19c2.16,3.57,4.3,7.14,6.48,10.7v12.65s.07,1.09-.63,1.83Zm7.79,14.71c-.5,.52-1.33,.77-2.33,.76-3.23-.06-3.51-2.39-3.52-2.43v-25.36c.5,.82,.99,1.64,1.49,2.45,1.65,2.7,3.32,5.4,4.98,8.09v14.65s.07,1.09-.63,1.83Zm7.79,13.89c-.5,.52-1.28,.78-2.33,.76-3.23-.06-3.51-2.39-3.52-2.43v-26.56c2.15,3.49,4.31,6.98,6.48,10.46v15.95s.07,1.09-.63,1.83Zm7.85,14.12c-.48,.51-1.23,.77-2.23,.77-.04,0-.07,0-.1,0-3.23-.06-3.51-2.39-3.52-2.43v-27.65l6.48,10.81v16.69s.07,1.08-.62,1.82Zm25.98-18.15l6.84-.02v11.24h-.91l-.04,.56c-.02,.24-.22,2.31-2.38,2.32l-.24,.02c-2.12,0-2.32-2.08-2.34-2.32l-.04-.56h-.9v-11.25Zm-8.04,0l6.84-.02v11.24h-.9l-.04,.56c-.02,.24-.22,2.31-2.38,2.32l-.24,.02c-2.12,0-2.32-2.08-2.34-2.32l-.04-.56h-.91v-11.25Zm-8.05,0l6.84-.02v11.24h-.91l-.04,.56c-.02,.24-.22,2.31-2.38,2.32l-.24,.02c-2.12,0-2.32-2.08-2.34-2.32l-.04-.56h-.9v-11.25Zm-1.2-.02v11.24h-.9l-.04,.56c-.02,.24-.22,2.31-2.38,2.32l-.24,.02c-2.12,0-2.32-2.08-2.34-2.32l-.04-.56h-.91v-11.16c.16,0,.32,0,.32,0,1.41-.03,2.84-.06,4.27-.09h2.26Z" style="fill:#fff;"/><g><path d="M110.93,31.16c-.19-1.11-1.19-1.73-2.07-2.28-.99-.62-2.04-1.47-1.83-2.79,.1-.62,.6-1.21,1.26-1.24,.17,0,.31,.04,.44,.12-.22,.19-.29,.5-.13,.76,.13,.21,.37,.32,.62,.3,.06,0,.13,0,.19-.04h.01s.04-.02,.06-.03c.12-.06,.2-.16,.26-.26,.3-.49-.25-1.17-.75-1.43-.87-.45-1.97,.14-2.41,.93-.54,.96-.32,2.18,.32,3.03,.6,.79,1.5,1.21,2.3,1.77,.43,.3,.83,.67,.98,1.19,.09,.32-.03,.69-.27,.86-.01-.08-.04-.15-.08-.22-.18-.29-.57-.39-.88-.22-.31,.17-.42,.54-.24,.83,.02,.04,.05,.07,.08,.11,.03,.04,.06,.08,.11,.12,.47,.34,1.12,.27,1.56-.09,.42-.34,.57-.87,.47-1.39Z" style="fill:#fff;"/><circle cx="111.83" cy="35.59" r="1.18" style="fill:#fff;"/><path d="M115.34,20.19c-1.96-.35-2.68,1.2-2.68,1.2-.62,.16-.88-.44-.88-.44,0,0,.02-2.08,.07-2.45,.05-.37,.58-.97,.58-.97,.46-.48,.58-1.02,.58-1.02,.04-1.33-.89-1.52-1.28-1.55h0s-.03,0-.09,0c-.05,0-.09,0-.09,0h0c-.39,.02-1.32,.22-1.28,1.55,0,0,.12,.53,.58,1.02,0,0,.53,.6,.58,.97s.07,2.45,.07,2.45c0,0-.25,.6-.88,.44,0,0-.72-1.55-2.68-1.2-1.96,.35-2.12,2.19-1.66,2.56,0,0,.07,.21,.21-.14s.88-1.06,1.71-.6c.83,.46,1.66-.09,1.94,.02l.28,.12s.83,.55,.88,1.71c.05,1.15-.07,5.13-.09,5.36,0,0-.22,.61,.44,.53,.67,.08,.44-.53,.44-.53-.02-.23-.14-4.2-.09-5.36,.05-1.15,.88-1.71,.88-1.71l.28-.12c.28-.12,1.11,.44,1.94-.02,.83-.46,1.57,.25,1.71,.6,.14,.35,.21,.14,.21,.14,.46-.37,.3-2.22-1.66-2.56Z" style="fill:#fff;"/><path d="M112.69,31.13c.19-1.11,1.19-1.73,2.07-2.28,.99-.62,2.04-1.47,1.83-2.79-.1-.62-.6-1.21-1.26-1.24-.17,0-.31,.04-.44,.12,.22,.19,.29,.5,.13,.76-.13,.21-.37,.32-.62,.3-.06,0-.13,0-.19-.04h-.01s-.04-.02-.06-.03c-.12-.06-.2-.16-.26-.26-.3-.49,.25-1.17,.75-1.43,.87-.45,1.97,.14,2.41,.93,.54,.96,.32,2.18-.32,3.03-.6,.79-1.5,1.21-2.3,1.77-.43,.3-.83,.67-.98,1.19-.09,.32,.03,.69,.27,.86,.01-.08,.04-.15,.08-.22,.18-.29,.57-.39,.88-.22,.31,.17,.42,.54,.24,.83-.02,.04-.05,.07-.08,.11-.03,.04-.06,.08-.11,.12-.47,.34-1.12,.27-1.56-.09-.42-.34-.57-.87-.47-1.39Z" style="fill:#fff;"/></g></g></g></g></svg>