<svg xmlns="http://www.w3.org/2000/svg" viewBox="0 0 194.4 182.8"><defs><style>.a{fill:#fff;}</style></defs><path class="a" d="M54.1,165.4a23.3,23.3,0,0,0-1,2.7H44.2c-.1,0-.1,0-.1-.2s0-.2.1-.2l1.1-.2.5-.4a1.7,1.7,0,0,0,.1-.8v-7.8a1.9,1.9,0,0,0-.1-.8l-.5-.3-1.1-.3c-.1,0-.1,0-.1-.2s0-.2.1-.2h8.5a22.7,22.7,0,0,0,.6,2.5c0,.1-.1.2-.3.2h-.2a2.6,2.6,0,0,0-2.6-2H48.6c-.7,0-1,.3-1,1V162h2.1a1.6,1.6,0,0,0,1.1-.4,3.4,3.4,0,0,0,.4-1.4h.5c0,.3-.1.7-.1,1.1v1.9c0,.5.1.8.1,1.1h-.5a3.4,3.4,0,0,0-.4-1.4,1.2,1.2,0,0,0-1.1-.4H47.6v4c0,.7.3,1,1,1h1.7a3.9,3.9,0,0,0,2-.6,5.2,5.2,0,0,0,1.4-1.6.1.1,0,0,1,.1-.1c.1,0,.2,0,.2.1Z"/><path class="a" d="M60.1,166a2.3,2.3,0,0,1-.8,1.7,2.6,2.6,0,0,1-1.9.7l-1.2-.2h-.9a8.2,8.2,0,0,0-.3-1.8c0-.1.1-.1.3-.1h.2a2.1,2.1,0,0,0,.8,1.1,1.6,1.6,0,0,0,1.1.5,1.8,1.8,0,0,0,1-.4,1.2,1.2,0,0,0,.3-.9.9.9,0,0,0-.3-.7,3.1,3.1,0,0,0-1.2-.7,4.7,4.7,0,0,1-1.6-1.1,1.6,1.6,0,0,1-.4-1.2,1.8,1.8,0,0,1,.7-1.5,2.8,2.8,0,0,1,1.8-.6h1.7a10.9,10.9,0,0,1,.1,1.7s0,.1-.2.1h-.2a1.6,1.6,0,0,0-.5-1,.9.9,0,0,0-.8-.4c-.9,0-1.3.4-1.3,1.1a.9.9,0,0,0,.3.7l1.3.9a6.4,6.4,0,0,1,1.6,1A1.3,1.3,0,0,1,60.1,166Z"/><path class="a" d="M69,164.6a3.7,3.7,0,0,1-1.1,2.7,4.1,4.1,0,0,1-2.8,1.1,3.1,3.1,0,0,1-1.7-.4v2.5a2.3,2.3,0,0,0,.2,1.1q.1.3.9.3c.1,0,.1.1.1.3s0,.2-.1.2H60.8c-.1,0-.1-.1-.1-.2s0-.3.1-.3.8-.1.9-.3.2-.5.2-1.1v-7.2c0-.5,0-.8-.1-.9l-.8-.3c-.1,0-.1-.1-.1-.2s0-.2.1-.2l1.3-.5.8-.4a.1.1,0,0,1,.1-.1h.3v1.1a3.9,3.9,0,0,1,1-.8l1.1-.3a3.2,3.2,0,0,1,2.5,1A4.3,4.3,0,0,1,69,164.6Zm-1.7,0a3.3,3.3,0,0,0-.6-2.1,2,2,0,0,0-1.7-.8l-.8.2a2.3,2.3,0,0,0-.8.7v4a.9.9,0,0,0,.5.9,2.1,2.1,0,0,0,1.1.4,2,2,0,0,0,1.7-.9A4.3,4.3,0,0,0,67.3,164.6Z"/><path class="a" d="M75.5,168.3l-.8-.2-.5-.6a3,3,0,0,1-2.3.9,1.7,1.7,0,0,1-1.2-.5,1.5,1.5,0,0,1-.4-1.1c0-1.1,1.3-2.1,4-2.7v-1.3h0a1.2,1.2,0,0,0-.3-.9,1,1,0,0,0-.8-.4,1.1,1.1,0,0,0-.8.3.6.6,0,0,0-.3.6,1.1,1.1,0,0,1-.3.8.9.9,0,0,1-.7.3l-.5-.2c-.1-.1-.1-.2-.1-.4s.4-.9,1.1-1.3a4,4,0,0,1,2.2-.7,2.2,2.2,0,0,1,1.4.5,1.8,1.8,0,0,1,.6,1.4h0l-.2,3.7h0q0,.9.6.9c.2,0,.4-.2.6-.4H77v.2l-.5.6A2.3,2.3,0,0,1,75.5,168.3Zm-1.3-3.7q-2.4.6-2.4,1.8t.9,1.2l.9-.2.6-.6Z"/><path class="a" d="M83.9,162.1a.6.6,0,0,1-.7.7l-.5-.2a1.1,1.1,0,0,1-.3-.5c-.2-.3-.3-.5-.5-.6l-.7-.2a1.9,1.9,0,0,0-1.5.8,5.4,5.4,0,0,0-.5,2.4,3.2,3.2,0,0,0,.7,2.2,2.1,2.1,0,0,0,1.7.8,2.6,2.6,0,0,0,2-.8h.2v.2l-.5.6-1.1.6-1.2.2a3.4,3.4,0,0,1-2.5-1.1,3.9,3.9,0,0,1,0-5.4,3.4,3.4,0,0,1,2.6-1.1,3.6,3.6,0,0,1,1.9.4C83.6,161.4,83.9,161.7,83.9,162.1Z"/><path class="a" d="M88.9,167.9c0,.2,0,.2-.1.2H85.1c-.1,0-.1,0-.1-.2s0-.2.1-.2.8-.2.9-.4.2-.5.2-1v-3c0-.5,0-.8-.1-.9l-.8-.3c-.1,0-.1-.1-.1-.2s0-.2.1-.2a3.8,3.8,0,0,0,1.4-.5,1.4,1.4,0,0,0,.7-.4h.4c-.1,1.3-.1,2.2-.1,2.9v2.6a1.9,1.9,0,0,0,.2,1c.1.2.4.3.9.4S88.9,167.8,88.9,167.9ZM87.8,158a.9.9,0,0,1-.3.6.8.8,0,0,1-.6.2l-.6-.2a1.4,1.4,0,0,1-.2-.6,1.4,1.4,0,0,1,.2-.7l.6-.2.6.2A.9.9,0,0,1,87.8,158Z"/><path class="a" d="M97.4,164.6a3.3,3.3,0,0,1-1.1,2.7,3.7,3.7,0,0,1-2.7,1.1,3.9,3.9,0,0,1-2.8-1.1,3.9,3.9,0,0,1,0-5.4,3.6,3.6,0,0,1,2.8-1.1,3.8,3.8,0,0,1,3.8,3.8Zm-1.6,0a4.3,4.3,0,0,0-.6-2.4,1.9,1.9,0,0,0-3.2,0,5.1,5.1,0,0,0,0,4.8,1.9,1.9,0,0,0,3.2,0A4.3,4.3,0,0,0,95.8,164.6Z"/><path class="a" d="M109,162.1c0,.4-.2.7-.6.7l-.5-.2a1.1,1.1,0,0,1-.4-.5,1,1,0,0,0-.5-.6l-.6-.2a1.6,1.6,0,0,0-1.5.8,4.3,4.3,0,0,0-.6,2.4,3.8,3.8,0,0,0,.7,2.2,2.2,2.2,0,0,0,1.8.8,2.4,2.4,0,0,0,1.9-.8h.1a.1.1,0,0,1,.1.1v.2l-.5.6-1,.6-1.3.2a3.6,3.6,0,0,1-2.5-1.1,3.6,3.6,0,0,1-1-2.7,3.3,3.3,0,0,1,1.1-2.7,3.3,3.3,0,0,1,2.6-1.1,4.1,4.1,0,0,1,1.9.4A.9.9,0,0,1,109,162.1Z"/><path class="a" d="M118.1,167.6c0,.1,0,.2-.1.2a4.4,4.4,0,0,0-2.1.6h-.3v-1a3.5,3.5,0,0,1-2.2,1.1A2.4,2.4,0,0,1,111,166v-3.1c0-.5,0-.8-.2-.9s-.3-.3-.7-.3h-.2c-.1,0-.2,0-.2-.2s.1-.2.2-.2l2.5-.4c.1,0,.1.1.1.2v4.5a2,2,0,0,0,.4,1.4,1.2,1.2,0,0,0,1.1.4l.8-.2a2.1,2.1,0,0,0,.8-.6v-3.7c0-.5,0-.8-.2-.9a.8.8,0,0,0-.7-.3h-.3c-.1,0-.1,0-.1-.2s0-.2.1-.2a14.1,14.1,0,0,0,2.5-.4l.2.2v5.2c0,.4,0,.7.1.8l.8.3C118.1,167.4,118.1,167.4,118.1,167.6Z"/><path class="a" d="M122.5,167.9c0,.1,0,.2-.1.2h-3.7l-.2-.2c0-.2.1-.2.2-.2a1.9,1.9,0,0,0,.9-.4,1.9,1.9,0,0,0,.2-1v-7.7a1.3,1.3,0,0,0-.2-.8c-.1-.2-.3-.3-.7-.3l-.2-.2a.2.2,0,0,1,.2-.2l1.4-.5.7-.4h.4c-.1,1.3-.1,2.2-.1,2.9v7.2c0,.5,0,.9.2,1s.4.3.9.4S122.5,167.7,122.5,167.9Z"/><path class="a" d="M128.2,161.6c0,.3,0,.4-.2.4h-2.4v3.9c0,1,.3,1.6,1.1,1.6a1.7,1.7,0,0,0,1.2-.4h.1v.2l-.6.6a3.2,3.2,0,0,1-1.4.3,2,2,0,0,1-1.5-.6,1.7,1.7,0,0,1-.5-1.5h0v-4c0-.2-.1-.3-.2-.3h-.6c-.2,0-.2,0-.2-.2s0-.2.1-.2a6.1,6.1,0,0,0,2-1.9l.2-.2c.2,0,.3.1.3.2v1.5H128C128.2,161.1,128.2,161.3,128.2,161.6Z"/><path class="a" d="M137.1,167.6a.2.2,0,0,1-.2.2,3.9,3.9,0,0,0-2,.6h-.4v-1a4.1,4.1,0,0,1-2.2,1.1,2.1,2.1,0,0,1-1.8-.7,2.4,2.4,0,0,1-.6-1.7v-3.1a1.4,1.4,0,0,0-.2-.9c-.1-.2-.4-.3-.8-.3h-.2c-.1,0-.1,0-.1-.2s0-.2.1-.2l2.5-.4c.1,0,.1.1.1.2v4.5a2.6,2.6,0,0,0,.4,1.4,1.2,1.2,0,0,0,1.1.4l.9-.2.8-.6v-3.7a1.4,1.4,0,0,0-.2-.9,1,1,0,0,0-.8-.3h-.2c-.1,0-.2,0-.2-.2s.1-.2.2-.2l2.5-.4c.1,0,.1.1.1.2v5.2a1.3,1.3,0,0,0,.2.8l.7.3C137,167.4,137.1,167.4,137.1,167.6Z"/><path class="a" d="M143.4,161.6a1.4,1.4,0,0,1-.2.6l-.5.2-.7-.2a.6.6,0,0,0-.5-.2,1.4,1.4,0,0,0-1.1.6v3.7a2.2,2.2,0,0,0,.2,1,1.9,1.9,0,0,0,1.1.4c.1,0,.1.1.1.2s0,.2-.1.2h-3.9c-.1,0-.2,0-.2-.2a.2.2,0,0,1,.2-.2c.5-.1.8-.2.9-.4a1.9,1.9,0,0,0,.2-1v-3a1.4,1.4,0,0,0-.2-.9l-.7-.3-.2-.2a.2.2,0,0,1,.2-.2l1.3-.5a1.4,1.4,0,0,0,.7-.4h.2c.2,0,.2.1.2.1v1.1l1.1-.9.9-.2.7.2A.9.9,0,0,1,143.4,161.6Z"/><path class="a" d="M149.2,168.3l-.8-.2a2.1,2.1,0,0,1-.4-.6,3.2,3.2,0,0,1-2.3.9,1.7,1.7,0,0,1-1.2-.5,1.3,1.3,0,0,1-.5-1.1c0-1.1,1.3-2.1,4-2.7v-1.3h0a1.2,1.2,0,0,0-.3-.9,1,1,0,0,0-.7-.4,1.4,1.4,0,0,0-.9.3.6.6,0,0,0-.3.6,1.1,1.1,0,0,1-.3.8.9.9,0,0,1-.7.3.7.7,0,0,1-.6-.6c0-.4.4-.9,1.2-1.3a3.7,3.7,0,0,1,2.1-.7,2.5,2.5,0,0,1,1.5.5,2.2,2.2,0,0,1,.5,1.4h0v3.7h0c0,.6.2.9.5.9s.4-.2.7-.4h.2v.2l-.5.6A2,2,0,0,1,149.2,168.3Zm-1.2-3.7q-2.4.6-2.4,1.8t.9,1.2l.8-.2.6-.6Z"/><path class="a" d="M154.9,167.9c0,.1,0,.2-.1.2h-3.7l-.2-.2c0-.2.1-.2.2-.2a1.9,1.9,0,0,0,.9-.4,1.9,1.9,0,0,0,.2-1v-7.7a1.3,1.3,0,0,0-.2-.8c-.1-.2-.3-.3-.7-.3a.2.2,0,0,1,0-.4l1.4-.5.7-.4h.4c-.1,1.3-.2,2.2-.2,2.9v7.2c0,.5.1.9.3,1s.4.3.9.4S154.9,167.7,154.9,167.9Z"/><path class="a" d="M158.3,168a2.3,2.3,0,0,1-.4,1.4,4.7,4.7,0,0,1-.9,1.2l-.8.5H156v-.2h0a2.5,2.5,0,0,0,1.3-2.1c0-.2,0-.4-.1-.4h-.3a.9.9,0,0,1-.6-.3.9.9,0,0,1-.3-.7.9.9,0,0,1,.3-.6.9.9,0,0,1,.7-.3,1,1,0,0,1,.9.4A2.5,2.5,0,0,1,158.3,168Z"/><path class="a" d="M35,182.7l-.8-.2a2.1,2.1,0,0,1-.4-.6,3.2,3.2,0,0,1-2.3.9,1.7,1.7,0,0,1-1.2-.5,1.6,1.6,0,0,1-.5-1.1c0-1.1,1.3-2.1,4-2.8v-1.2h0a2,2,0,0,0-.2-.9.9.9,0,0,0-.8-.4,1.1,1.1,0,0,0-.8.3.5.5,0,0,0-.4.6,1.1,1.1,0,0,1-.3.8.8.8,0,0,1-.7.3.7.7,0,0,1-.6-.6c0-.4.4-.9,1.2-1.3a3.7,3.7,0,0,1,2.1-.7,2.5,2.5,0,0,1,1.5.5,2.2,2.2,0,0,1,.5,1.4h0v3.7h0c0,.6.2.9.5.9s.4-.2.7-.4h.2v.2c0,.1-.1.3-.5.6A2,2,0,0,1,35,182.7ZM33.8,179q-2.4.6-2.4,1.8t.9,1.2l.8-.2a1.7,1.7,0,0,0,.6-.6Z"/><path class="a" d="M42.6,176a.7.7,0,0,1-.2.6l-.5.2-.7-.3h-.5a1.7,1.7,0,0,0-1.1.6v3.7a1.3,1.3,0,0,0,.3,1c.1.2.5.3,1,.4a.2.2,0,0,1,.2.2c0,.2-.1.2-.2.2H37s-.1,0-.1-.2a.3.3,0,0,1,.1-.2,1.9,1.9,0,0,0,1-.4,1.9,1.9,0,0,0,.2-1v-3.1a1.3,1.3,0,0,0-.2-.8c-.1-.2-.4-.2-.8-.3v-.2a.3.3,0,0,1,.1-.2,4.6,4.6,0,0,0,1.4-.5l.7-.4h.4v1.1l1.2-.9.9-.2.7.2A1.4,1.4,0,0,1,42.6,176Z"/><path class="a" d="M48.5,176c0,.3-.1.4-.2.4H45.8v3.9c0,1,.4,1.6,1.1,1.6a2.1,2.1,0,0,0,1.2-.4h.2v.2l-.6.6a3.2,3.2,0,0,1-1.4.3,2,2,0,0,1-1.5-.6,2.1,2.1,0,0,1-.5-1.5h0v-4c0-.2-.1-.3-.2-.3h-.6c-.1,0-.2,0-.2-.2l.2-.2a6.9,6.9,0,0,0,1.9-1.9l.3-.2.2.2v1.5h2.5C48.4,175.5,48.5,175.7,48.5,176Z"/><path class="a" d="M53.2,182.3c0,.2,0,.2-.1.2H49.4c-.1,0-.1,0-.1-.2s0-.2.1-.2.8-.2.9-.4.2-.5.2-1v-3.1c0-.4,0-.7-.1-.8s-.4-.2-.8-.3-.1-.1-.1-.2,0-.2.1-.2l1.4-.5a1.4,1.4,0,0,0,.7-.4h.4c-.1,1.3-.1,2.2-.1,2.9v2.6a1.9,1.9,0,0,0,.2,1c.1.2.4.3.9.4S53.2,182.2,53.2,182.3Zm.4-10.3c0,.2,0,.3-.1.3L50.8,174h-.4v-.2l2.4-2.2H53l.4.2A.6.6,0,0,1,53.6,172Z"/><path class="a" d="M59.1,180.4a2.3,2.3,0,0,1-.8,1.7,3.2,3.2,0,0,1-1.9.7l-1.2-.2h-.9a8.2,8.2,0,0,0-.3-1.8h.5a2.6,2.6,0,0,0,.7,1.1,1.9,1.9,0,0,0,1.2.4,1.7,1.7,0,0,0,1-.3,1.2,1.2,0,0,0,.3-.9.9.9,0,0,0-.3-.7,3.1,3.1,0,0,0-1.2-.7,7.1,7.1,0,0,1-1.7-1.1,2.8,2.8,0,0,1-.4-1.2,1.9,1.9,0,0,1,.8-1.5,2.8,2.8,0,0,1,1.8-.6h1.7c0,.7.1,1.2.1,1.7h-.4a2.3,2.3,0,0,0-.5-1,1,1,0,0,0-.9-.4c-.8,0-1.2.4-1.2,1.1a.9.9,0,0,0,.3.7l1.3.9a6.4,6.4,0,0,1,1.6,1A1.8,1.8,0,0,1,59.1,180.4Z"/><path class="a" d="M65.3,176c0,.3-.1.4-.2.4H62.6v3.9c0,1,.4,1.6,1.1,1.6a2.1,2.1,0,0,0,1.2-.4h.2v.2l-.6.6a3.2,3.2,0,0,1-1.4.3,2,2,0,0,1-1.5-.6,2.1,2.1,0,0,1-.5-1.5h0v-4c0-.2-.1-.3-.2-.3h-.6c-.1,0-.2,0-.2-.2l.2-.2a6.9,6.9,0,0,0,1.9-1.9l.3-.2.2.2v1.5h2.5C65.2,175.5,65.3,175.7,65.3,176Z"/><path class="a" d="M70,182.3c0,.2,0,.2-.1.2H66.2c-.1,0-.1,0-.1-.2s0-.2.1-.2.8-.2.9-.4a1.9,1.9,0,0,0,.2-1v-3.1c0-.4,0-.7-.2-.8s-.3-.2-.7-.3-.1-.1-.1-.2,0-.2.1-.2l1.4-.5a1.4,1.4,0,0,0,.7-.4h.4c-.1,1.3-.1,2.2-.1,2.9v2.6a1.9,1.9,0,0,0,.2,1c.1.2.4.3.9.4S70,182.2,70,182.3Zm-1.1-9.9a.9.9,0,0,1-.3.6l-.6.2-.6-.2a1.4,1.4,0,0,1-.2-.6,1.4,1.4,0,0,1,.2-.7l.6-.2.6.2A.9.9,0,0,1,68.9,172.4Z"/><path class="a" d="M77.2,176.5c0,.4-.2.6-.7.6H76a1.1,1.1,0,0,1-.3-.5c-.2-.3-.3-.5-.5-.6l-.7-.2a1.9,1.9,0,0,0-1.5.8,5.4,5.4,0,0,0-.5,2.4,3.2,3.2,0,0,0,.7,2.2,2.1,2.1,0,0,0,1.7.8,2.6,2.6,0,0,0,2-.8h.2v.2l-.5.6-1.1.6-1.2.2a3.4,3.4,0,0,1-2.5-1.1,3.7,3.7,0,0,1-1.1-2.7,4.1,4.1,0,0,1,1.1-2.8,3.7,3.7,0,0,1,2.6-1,3.6,3.6,0,0,1,1.9.4C76.9,175.8,77.2,176.1,77.2,176.5Z"/><path class="a" d="M85.9,179a3.6,3.6,0,0,1-1,2.7,3.8,3.8,0,0,1-2.8,1.1,3.7,3.7,0,0,1-2.7-1.1,3.8,3.8,0,0,1,2.7-6.5,3.6,3.6,0,0,1,2.8,1.1A3.6,3.6,0,0,1,85.9,179Zm-1.6,0a4.3,4.3,0,0,0-.6-2.4,1.9,1.9,0,0,0-3.2,0,5.1,5.1,0,0,0,0,4.8,2,2,0,0,0,3.2,0A4.3,4.3,0,0,0,84.3,179Z"/><path class="a" d="M97.7,177.9c0,.1-.1.2-.3.2H92.9v.9a2.8,2.8,0,0,0,.6,2,2.2,2.2,0,0,0,1.8.8,1.9,1.9,0,0,0,1.2-.4,1.8,1.8,0,0,0,.9-.8h.2v.2l-.5.8-1.2.8a2.8,2.8,0,0,1-1.3.3,3.4,3.4,0,0,1-2.5-1.1,4.1,4.1,0,0,1-1-2.7,3.8,3.8,0,0,1,1-2.7,3.1,3.1,0,0,1,2.5-1.1,3.3,3.3,0,0,1,2.2.8A2.9,2.9,0,0,1,97.7,177.9Zm-1.5-.8a1.3,1.3,0,0,0-.4-1,1.4,1.4,0,0,0-1.1-.4,1.6,1.6,0,0,0-1.1.5,3.5,3.5,0,0,0-.6,1.4h3C96.2,177.4,96.2,177.3,96.2,177.1Z"/><path class="a" d="M106.8,182.3c0,.2,0,.2-.1.2H103c-.1,0-.1,0-.1-.2s0-.2.1-.2.8-.2.9-.4a1.9,1.9,0,0,0,.2-1v-3.1a1.3,1.3,0,0,0-.2-.8c-.1-.2-.3-.2-.7-.3s-.1-.1-.1-.2,0-.2.1-.2l1.4-.5a1.4,1.4,0,0,0,.7-.4h.4c-.1,1.3-.1,2.2-.1,2.9v2.6c0,.5,0,.9.2,1s.4.3.9.4S106.8,182.2,106.8,182.3Zm-1.1-9.9a.9.9,0,0,1-.3.6l-.6.2-.6-.2a.7.7,0,0,1-.2-.6.8.8,0,0,1,.2-.7l.6-.2.6.2A.9.9,0,0,1,105.7,172.4Z"/><path class="a" d="M116,182.3c0,.2-.1.2-.2.2h-3.4c-.1,0-.2,0-.2-.2a.2.2,0,0,1,.2-.2l.7-.3a2.7,2.7,0,0,0,.2-1.1v-2.8a1.7,1.7,0,0,0-.4-1.3,1.2,1.2,0,0,0-1.1-.4H111a2.7,2.7,0,0,0-.8.7v3.7a3.1,3.1,0,0,0,.1,1.1l.8.3c.1,0,.1.1.1.2s0,.2-.1.2h-3.5c-.1,0-.1,0-.1-.2s0-.2.1-.2.8-.2.9-.4a1.9,1.9,0,0,0,.2-1v-3.1a1.3,1.3,0,0,0-.2-.8c-.1-.2-.3-.2-.7-.3l-.2-.2a.2.2,0,0,1,.2-.2l1.3-.5a1.4,1.4,0,0,0,.7-.4h.4v1.1a3.1,3.1,0,0,1,2.2-1.1,2.1,2.1,0,0,1,2.3,2.3v3.2a1.9,1.9,0,0,0,.2,1,1.9,1.9,0,0,0,.9.4A.2.2,0,0,1,116,182.3Z"/><path class="a" d="M121.7,176c0,.3,0,.4-.2.4h-2.4v3.9c0,1,.3,1.6,1.1,1.6a2.5,2.5,0,0,0,1.2-.4h.1c.1.1.1.1.1.2l-.6.6a3.2,3.2,0,0,1-1.4.3,2,2,0,0,1-1.5-.6,1.7,1.7,0,0,1-.5-1.5h0v-4c0-.2-.1-.3-.2-.3h-.6c-.2,0-.2,0-.2-.2s0-.2.1-.2a6.1,6.1,0,0,0,2-1.9l.3-.2.2.2v1.5h2.4C121.7,175.5,121.7,175.7,121.7,176Z"/><path class="a" d="M129,177.9c0,.1-.1.2-.3.2h-4.5a2.8,2.8,0,0,0-.1.9,2.4,2.4,0,0,0,.7,2,2.2,2.2,0,0,0,1.8.8,1.9,1.9,0,0,0,1.1-.4,2.5,2.5,0,0,0,1-.8h.2v.2a1.5,1.5,0,0,1-.5.8l-1.1.8a3.1,3.1,0,0,1-1.3.3,3.4,3.4,0,0,1-2.5-1.1,3.6,3.6,0,0,1-1-2.7,3.8,3.8,0,0,1,1-2.7,3,3,0,0,1,2.5-1.1,3.2,3.2,0,0,1,2.1.8A2.6,2.6,0,0,1,129,177.9Zm-1.5-.8a1.8,1.8,0,0,0-.4-1,1.5,1.5,0,0,0-1.1-.4,1.6,1.6,0,0,0-1.1.5,6.1,6.1,0,0,0-.7,1.4h3.1A.5.5,0,0,0,127.5,177.1Z"/><path class="a" d="M135.7,176a1.4,1.4,0,0,1-.2.6l-.5.2a1.1,1.1,0,0,1-.7-.3h-.5a1.7,1.7,0,0,0-1.1.6v3.7a1.3,1.3,0,0,0,.3,1c.1.2.5.3,1,.4a.2.2,0,0,1,.2.2c0,.2-.1.2-.2.2h-3.9c-.1,0-.1,0-.1-.2s0-.2.1-.2.8-.2.9-.4.2-.5.2-1v-3.1c0-.4,0-.7-.1-.8s-.4-.2-.8-.3-.1-.1-.1-.2,0-.2.1-.2a4.6,4.6,0,0,0,1.4-.5l.7-.4h.4v1.1a7.4,7.4,0,0,1,1.2-.9l.9-.2.6.2A.9.9,0,0,1,135.7,176Z"/><path class="a" d="M141.6,182.7l-.8-.2-.5-.6a3,3,0,0,1-2.3.9,1.7,1.7,0,0,1-1.2-.5,1.6,1.6,0,0,1-.5-1.1c0-1.1,1.4-2.1,4-2.8v-1.2h0a1.2,1.2,0,0,0-.3-.9.9.9,0,0,0-.8-.4,1.1,1.1,0,0,0-.8.3.6.6,0,0,0-.3.6c-.1.3-.1.6-.3.8a.9.9,0,0,1-.7.3l-.5-.2c-.1-.1-.1-.2-.1-.4s.4-.9,1.1-1.3a4,4,0,0,1,2.2-.7,2.2,2.2,0,0,1,1.4.5,1.8,1.8,0,0,1,.6,1.4h0l-.2,3.7h0q0,.9.6.9c.2,0,.4-.2.6-.4h.2c0,.1.1.1.1.2l-.5.6A2.3,2.3,0,0,1,141.6,182.7Zm-1.3-3.7q-2.4.6-2.4,1.8t.9,1.2l.9-.2.6-.6Z"/><path class="a" d="M150,176.5c0,.4-.2.6-.7.6h-.5a1.1,1.1,0,0,1-.3-.5c-.2-.3-.3-.5-.5-.6l-.7-.2a1.9,1.9,0,0,0-1.5.8,5.4,5.4,0,0,0-.5,2.4,3.8,3.8,0,0,0,.6,2.2,2.5,2.5,0,0,0,1.8.8,2.8,2.8,0,0,0,2-.8h.2v.2c0,.1-.1.3-.4.6l-1.1.6-1.2.2a3.4,3.4,0,0,1-2.5-1.1,3.7,3.7,0,0,1-1.1-2.7,4.1,4.1,0,0,1,1.1-2.8,3.7,3.7,0,0,1,2.6-1,3.6,3.6,0,0,1,1.9.4C149.7,175.8,150,176.1,150,176.5Z"/><path class="a" d="M156.3,176c0,.3,0,.4-.2.4h-2.4v3.9c0,1,.3,1.6,1.1,1.6a2.8,2.8,0,0,0,1.2-.4h.1c.1.1.1.1.1.2l-.6.6a3.2,3.2,0,0,1-1.4.3,2,2,0,0,1-1.5-.6,1.8,1.8,0,0,1-.6-1.5h0v-4c0-.2-.1-.3-.2-.3h-.6c-.2,0-.2,0-.2-.2s0-.2.1-.2a7.2,7.2,0,0,0,2-1.9l.2-.2c.2,0,.3.1.3.2v1.5h2.4C156.3,175.5,156.3,175.7,156.3,176Z"/><path class="a" d="M161.1,182.3c0,.2,0,.2-.1.2h-3.7c-.1,0-.2,0-.2-.2a.2.2,0,0,1,.2-.2,1.9,1.9,0,0,0,.9-.4,1.9,1.9,0,0,0,.2-1v-3.1a1.3,1.3,0,0,0-.2-.8c-.1-.2-.3-.2-.7-.3l-.2-.2a.2.2,0,0,1,.2-.2l1.4-.5.7-.4h.4c-.1,1.3-.2,2.2-.2,2.9v2.6c0,.5.1.9.3,1s.4.3.9.4S161.1,182.2,161.1,182.3Zm-1.2-9.9a.7.7,0,0,1-.2.6l-.6.2-.6-.2a.9.9,0,0,1-.3-.6.9.9,0,0,1,.3-.7l.6-.2.6.2A.8.8,0,0,1,159.9,172.4Z"/><path class="a" d="M169.1,175.7c0,.1,0,.2-.1.2a1.3,1.3,0,0,0-.9.3,2.7,2.7,0,0,0-.6,1.1l-2.4,5.4h-.4l-2.2-5.4a3.6,3.6,0,0,0-.6-1.1,1.9,1.9,0,0,0-.9-.3.3.3,0,0,1-.1-.2.4.4,0,0,1,.1-.3h3.6a.4.4,0,0,1,.1.3.3.3,0,0,1-.1.2,1,1,0,0,0-.7.2c-.1,0-.2.1-.2.3a5.1,5.1,0,0,0,.2.9l1.4,3.2,1.3-3.2a2.3,2.3,0,0,0,.3-.9c0-.2-.1-.3-.2-.3a1,1,0,0,0-.7-.2.3.3,0,0,1-.1-.2.4.4,0,0,1,.1-.3h3C169.1,175.4,169.1,175.5,169.1,175.7Z"/><path class="a" d="M177.1,179a3.7,3.7,0,0,1-1.1,2.7,3.8,3.8,0,0,1-2.8,1.1,3.7,3.7,0,0,1-2.7-1.1,3.3,3.3,0,0,1-1.1-2.7,3.7,3.7,0,0,1,1.1-2.7,3.3,3.3,0,0,1,2.7-1.1,3.4,3.4,0,0,1,2.8,1.1A3.7,3.7,0,0,1,177.1,179Zm-1.7,0a4.3,4.3,0,0,0-.6-2.4,1.8,1.8,0,0,0-1.6-.9,1.9,1.9,0,0,0-1.6.9,6,6,0,0,0,0,4.8,2,2,0,0,0,3.2,0A4.3,4.3,0,0,0,175.4,179Z"/><path class="a" d="M44.2,112.8a13.9,13.9,0,0,1-13.5,1.5C22,110.6,24.2,98.6,29,92.5a16.1,16.1,0,0,1-.1-7.9c.1-.6.8-.8.7.2a20.6,20.6,0,0,0,.2,6.6A15.6,15.6,0,0,1,44.2,85c13.5,1.5,8.6,18.2-5.6,16.1-3.6-.5-6.8-2.1-8.6-5.9-1.3,1.7-7,15.7,2,18.5a15.2,15.2,0,0,0,11.6-1.5c3.1-1.8,4.3-4,5.7-7,.3-.6.8-.3.4.4C48.3,108.6,47.1,110.7,44.2,112.8ZM30.7,94.1c1.5,4,4.6,5.8,8.4,6.2,12.5,1.4,15.6-12.5,5.4-14C39.4,85.6,34.1,88.9,30.7,94.1Z"/><path class="a" d="M56.7,112c-1.2,0-2.8-.9-1.8-4.5a14,14,0,0,1-2.5,3.2c-3.9,3.9-6.6-2.2-1.3-8.5,2-2.4,6-3.7,8-1.6s.2,1.1-.4,1-1.7-1.5-2.9-.8a13.7,13.7,0,0,0-4.6,4.9,11.7,11.7,0,0,0-1.5,3.5c-.3,2.4,1.6,2.2,3.2.2a26.3,26.3,0,0,0,3.1-4.8c.8-1.5,1.3-2.3,2.4-2.2a6.1,6.1,0,0,0,1.4.1,19.6,19.6,0,0,0-3.2,6.5c-.3,1.4-.1,2.1.3,2.1s3.8-4.4,4.5-5.9.8-.4.5.3S58.7,111.8,56.7,112Z"/><path class="a" d="M63.6,111.7a4,4,0,0,1-1.5.3c-4.1,0-3.4-4.8-1.7-4.9.9-1.7,2.1-4,3-5.9s1.6-2.9,2.9-3a2.3,2.3,0,0,1,1.2.1c.7.4.5.9-.1.6a1.4,1.4,0,0,0-1.1,0c-1.6.8-1.3,3.2-.7,4.4s1.3,2.6,1.2,4.1a5.7,5.7,0,0,1-2.4,3.8h.2a3.8,3.8,0,0,0,3.1-1.6,27.9,27.9,0,0,0,2.6-4.6c.2-.3.7-.1.5.2C69.6,108.2,67.5,112.9,63.6,111.7Zm-2.4-3c-1.1,1.1-.7,2.7.7,2.7h.7A3.3,3.3,0,0,1,61.2,108.7Zm3.1-7.9L61,107.2s.8,0,.7,1.1a3,3,0,0,0,1.5,2.7,5.1,5.1,0,0,0,1.5-3.6C64.8,105.2,64,102.4,64.3,100.8Z"/><path class="a" d="M77.7,112c-1.2,0-2.8-.9-1.8-4.5a14,14,0,0,1-2.5,3.2c-4,3.9-6.6-2.2-1.4-8.5,2.1-2.4,6.1-3.7,8.1-1.6s.2,1.1-.4,1-1.7-1.5-2.9-.8-3.4,2.9-4.7,4.9a15.7,15.7,0,0,0-1.4,3.5c-.3,2.4,1.6,2.2,3.2.2a26.3,26.3,0,0,0,3.1-4.8c.8-1.5,1.2-2.3,2.3-2.2a7.6,7.6,0,0,0,1.5.1,19.6,19.6,0,0,0-3.2,6.5c-.3,1.4-.1,2.1.3,2.1s3.8-4.4,4.5-5.9.8-.4.5.3S79.7,111.8,77.7,112Z"/><path class="a" d="M91.6,130a6.1,6.1,0,0,1-1.7,4.6,6.4,6.4,0,0,1-4.6,1.7,13.2,13.2,0,0,1-3.1-.5,10.3,10.3,0,0,0-2.7-.4c-.1-1.7-.2-3.3-.4-5,0-.1.2-.2.5-.2s.3.1.3.2c.6,1.8,1.2,3.1,2.1,3.8a4.5,4.5,0,0,0,3.4,1.1,3.3,3.3,0,0,0,2.7-1,3.7,3.7,0,0,0,1-2.8,3.3,3.3,0,0,0-.9-2.2,12.7,12.7,0,0,0-3.6-2.6,16.2,16.2,0,0,1-4.1-3.1,4.8,4.8,0,0,1-1-2.8,5.2,5.2,0,0,1,1.8-4,6.1,6.1,0,0,1,4.4-1.6l2.4.2,2.1.3c.1,1.7.3,3.2.5,4.5s-.1.2-.4.2-.4-.1-.4-.2a6,6,0,0,0-1.5-3.1,3.3,3.3,0,0,0-2.7-1,3.3,3.3,0,0,0-2.6,1,3.6,3.6,0,0,0-1,2.5,3.2,3.2,0,0,0,.8,2,17.3,17.3,0,0,0,3.6,2.5,16.7,16.7,0,0,1,4.1,3.1A4.4,4.4,0,0,1,91.6,130Z"/><path class="a" d="M103,136.1a2.3,2.3,0,0,1-1.4-.4,1.9,1.9,0,0,1-.8-1.1,5.3,5.3,0,0,1-4.1,1.6,2.7,2.7,0,0,1-2.9-2.8c0-2,2.3-3.6,7-4.8v-2.3h0a2.3,2.3,0,0,0-.5-1.7A1.7,1.7,0,0,0,99,124a2.3,2.3,0,0,0-1.4.4,1.2,1.2,0,0,0-.6,1,2.3,2.3,0,0,1-.5,1.5,1.7,1.7,0,0,1-1.3.5.9.9,0,0,1-.7-.3.8.8,0,0,1-.3-.7c0-.8.7-1.5,2-2.4a7.6,7.6,0,0,1,3.8-1.2,3.2,3.2,0,0,1,2.5,1,3,3,0,0,1,1,2.4v.2l-.2,6.6h0c0,1,.3,1.5,1,1.5a1.7,1.7,0,0,0,1.1-.6h.1l.2.2a.4.4,0,0,1,.1.3c0,.3-.3.6-.9,1A3.1,3.1,0,0,1,103,136.1Zm-2.2-6.5c-2.8.6-4.2,1.7-4.2,3.2s.5,2,1.6,2a2.8,2.8,0,0,0,1.5-.4,1.8,1.8,0,0,0,1-.9Z"/><path class="a" d="M121.4,135.4c0,.3-.1.4-.2.4H115c-.2,0-.2-.1-.2-.4s0-.4.2-.4a1.8,1.8,0,0,0,1.3-.6,3.6,3.6,0,0,0,.3-1.8v-4.9a3.8,3.8,0,0,0-.6-2.4,2.4,2.4,0,0,0-2-.7,3.3,3.3,0,0,0-1.5.3,6,6,0,0,0-1.4,1.1v6.6a3.6,3.6,0,0,0,.3,1.8,2.3,2.3,0,0,0,1.4.6c.1,0,.2.2.2.4s-.1.4-.2.4h-6.2c-.2,0-.3-.1-.3-.4s.1-.4.3-.4a2.7,2.7,0,0,0,1.6-.6,3.6,3.6,0,0,0,.3-1.8v-5.4a2.4,2.4,0,0,0-.3-1.5c-.2-.3-.6-.4-1.3-.5s-.2-.1-.2-.4.1-.4.2-.4a9.6,9.6,0,0,0,2.4-.8c.7-.3,1.1-.5,1.2-.7l.3-.2c.3,0,.4.1.4.2v1.9a6.1,6.1,0,0,1,3.9-2,4,4,0,0,1,3.1,1.2,4.1,4.1,0,0,1,1.1,3v5.6a2.6,2.6,0,0,0,.4,1.8c.2.3.7.5,1.6.6S121.4,135.2,121.4,135.4Z"/><path class="a" d="M133.8,125.1a1.1,1.1,0,0,1-1.2,1.2l-.8-.2a2.9,2.9,0,0,1-.7-1,3.5,3.5,0,0,0-.8-1.1,2.2,2.2,0,0,0-1.2-.2,3,3,0,0,0-2.7,1.4,8.3,8.3,0,0,0-.9,4.3,5.5,5.5,0,0,0,1.2,3.7,3.7,3.7,0,0,0,3.1,1.5,4.7,4.7,0,0,0,3.5-1.4h.3a.6.6,0,0,1,.1.4c0,.2-.2.5-.8,1a7.2,7.2,0,0,1-1.9,1.1,7.1,7.1,0,0,1-2.1.3,6.1,6.1,0,0,1-4.5-1.9,7.2,7.2,0,0,1,.1-9.6,6.6,6.6,0,0,1,4.6-1.9,6.7,6.7,0,0,1,3.3.7C133.3,123.9,133.8,124.5,133.8,125.1Z"/><path class="a" d="M151,135.4c0,.3-.1.4-.2.4h-6.2c-.2,0-.3-.1-.3-.4s.1-.4.3-.4a2,2,0,0,0,1.3-.6,3.6,3.6,0,0,0,.3-1.8v-4.9c0-2.1-1-3.1-2.9-3.1a3.9,3.9,0,0,0-3.1,1.4v6.6a3,3,0,0,0,.4,1.8,2.3,2.3,0,0,0,1.5.6c.1,0,.2.2.2.4s-.1.4-.2.4h-6.4c-.2,0-.3-.1-.3-.4s.1-.4.3-.4a2.7,2.7,0,0,0,1.6-.6,3.6,3.6,0,0,0,.3-1.8V119.1a3,3,0,0,0-.3-1.6,1.8,1.8,0,0,0-1.3-.4.5.5,0,0,1-.2-.4c0-.3.1-.4.2-.4a10,10,0,0,0,3.7-1.5.4.4,0,0,1,.3-.2c.3,0,.5.1.5.2a41.2,41.2,0,0,0-.3,5.1v4.9a6.3,6.3,0,0,1,4.1-2,4.5,4.5,0,0,1,3.3,1.2,3.8,3.8,0,0,1,1.2,3v5.6a2.6,2.6,0,0,0,.4,1.8c.2.3.7.5,1.6.6S151,135.2,151,135.4Z"/><path class="a" d="M165.6,129.6a6.8,6.8,0,0,1-1.8,4.8,7.6,7.6,0,0,1-9.8,0,7,7,0,0,1,0-9.6,6.7,6.7,0,0,1,11.6,4.8Zm-2.9,0a7.8,7.8,0,0,0-1-4.3,3.4,3.4,0,0,0-5.6,0,7.8,7.8,0,0,0-1.1,4.3,7.7,7.7,0,0,0,1.1,4.2,3.1,3.1,0,0,0,2.8,1.5,3.2,3.2,0,0,0,2.8-1.5A7.3,7.3,0,0,0,162.7,129.6Z"/><path class="a" d="M89.2,93.1a.3.3,0,0,1-.3.3,6.1,6.1,0,0,0-1.7.4,1.5,1.5,0,0,0-.9.6,3.9,3.9,0,0,0-.2,1.3v12.1a12.1,12.1,0,0,1-1.1,4.9,9.4,9.4,0,0,1-2.9,3.8,6.1,6.1,0,0,1-3.8,1.5,3.6,3.6,0,0,1-1.9-.5,1.5,1.5,0,0,1-.6-1.3,2.1,2.1,0,0,1,.5-1.3,2.5,2.5,0,0,1,1.5-.5l.7.2c.3.1.5.4.9.8a1.5,1.5,0,0,0,1.2.7c.8,0,1.5-.6,2-1.9a17,17,0,0,0,.7-5.6V95.7a2.4,2.4,0,0,0-.2-1.3,1.3,1.3,0,0,0-.8-.6,6,6,0,0,0-1.8-.4c-.1,0-.2-.1-.2-.3s.1-.4.2-.4h8.4C89.1,92.7,89.2,92.8,89.2,93.1Z"/><path class="a" d="M95.5,111.3c0,.2-.1.3-.2.3H89.2c-.2,0-.2-.1-.2-.3s0-.4.2-.4a2.6,2.6,0,0,0,1.5-.6,2.9,2.9,0,0,0,.3-1.7v-5a2.4,2.4,0,0,0-.3-1.5,1.7,1.7,0,0,0-1.2-.4c-.1,0-.2-.1-.2-.4s.1-.3.2-.3l2.3-.8,1.2-.7.3-.2c.2,0,.4.1.4.3-.2,2-.3,3.6-.3,4.7v4.3c0,.9.1,1.5.4,1.7a2.1,2.1,0,0,0,1.5.6C95.4,110.9,95.5,111,95.5,111.3ZM93.6,94.8a1.4,1.4,0,1,1-2.8,0,1.4,1.4,0,0,1,1.4-1.4,1.3,1.3,0,0,1,1,.4A1.2,1.2,0,0,1,93.6,94.8Z"/><path class="a" d="M118.3,111.3c0,.2-.1.3-.2.3h-5.8c-.1,0-.2-.1-.2-.3s.1-.4.2-.4a2.3,2.3,0,0,0,1.2-.5,3.6,3.6,0,0,0,.3-1.8V104a3.4,3.4,0,0,0-.6-2.2,2.1,2.1,0,0,0-1.8-.7,3.7,3.7,0,0,0-2.7,1.1v6.4a3.6,3.6,0,0,0,.3,1.8,2.3,2.3,0,0,0,1.2.5c.1,0,.2.1.2.4s-.1.3-.2.3h-5.5c-.1,0-.2-.1-.2-.3s.1-.4.2-.4a2.3,2.3,0,0,0,1.2-.5,3.6,3.6,0,0,0,.3-1.8V104a3.4,3.4,0,0,0-.6-2.2,2.1,2.1,0,0,0-1.8-.7,2.9,2.9,0,0,0-1.4.3,3.8,3.8,0,0,0-1.3,1v6.2a3.6,3.6,0,0,0,.3,1.8,2.3,2.3,0,0,0,1.2.5c.1,0,.2.1.2.4s-.1.3-.2.3H96.8c-.1,0-.2-.1-.2-.3s.1-.4.2-.4a2.1,2.1,0,0,0,1.5-.6,2.9,2.9,0,0,0,.3-1.7v-5a2.4,2.4,0,0,0-.3-1.5c-.1-.2-.5-.4-1.2-.4s-.2-.1-.2-.4.1-.3.2-.3a10.2,10.2,0,0,0,2.3-.8l1.1-.7.3-.2c.3,0,.4.1.4.3v1.7a5.6,5.6,0,0,1,3.6-1.8,3.6,3.6,0,0,1,3.6,1.9,5.7,5.7,0,0,1,4-1.9,3.5,3.5,0,0,1,3.9,3.9v5.2c0,.9.1,1.5.4,1.7a2.1,2.1,0,0,0,1.5.6C118.2,110.9,118.3,111,118.3,111.3Z"/><path class="a" d="M130.2,103.9a.5.5,0,0,1-.5.4h-7.5c0,.5-.1,1-.1,1.5a5,5,0,0,0,1.1,3.4,3.7,3.7,0,0,0,2.9,1.2,3.9,3.9,0,0,0,2-.6,4,4,0,0,0,1.6-1.3h.3a.6.6,0,0,1,.1.4q0,.3-.9,1.2a8.5,8.5,0,0,1-1.9,1.4,4.9,4.9,0,0,1-2.1.4,5.4,5.4,0,0,1-4.1-1.8,5.8,5.8,0,0,1-1.7-4.4,6.4,6.4,0,0,1,1.6-4.5,5.4,5.4,0,0,1,4.2-1.8,4.8,4.8,0,0,1,3.5,1.3A4.3,4.3,0,0,1,130.2,103.9Zm-2.5-1.2a2.1,2.1,0,0,0-.7-1.7,2.4,2.4,0,0,0-1.8-.7,2.3,2.3,0,0,0-1.8.9,5.5,5.5,0,0,0-1.1,2.3h3.8a2.9,2.9,0,0,0,1.2-.2C127.6,103.1,127.7,103,127.7,102.7Zm1.4-8.5a.8.8,0,0,1-.2.5l-4.6,2.8h-.2l-.3-.2a.5.5,0,0,1,0-.6l3.9-3.6.3-.2c.3,0,.5.2.8.4A1.6,1.6,0,0,1,129.1,94.2Z"/><path class="a" d="M146,111.3a.3.3,0,0,1-.3.3H140a.3.3,0,0,1-.3-.3c0-.3.1-.4.3-.4a2.3,2.3,0,0,0,1.2-.5,3.6,3.6,0,0,0,.3-1.8V104a3.4,3.4,0,0,0-.6-2.2,2.2,2.2,0,0,0-1.9-.7,3.2,3.2,0,0,0-1.4.3,5,5,0,0,0-1.3,1v6.2a3.6,3.6,0,0,0,.3,1.8,2.3,2.3,0,0,0,1.3.5c.1,0,.2.1.2.4s-.1.3-.2.3h-5.8a.3.3,0,0,1-.3-.3c0-.3.1-.4.3-.4a2.6,2.6,0,0,0,1.5-.6,3.2,3.2,0,0,0,.3-1.7v-5a2.4,2.4,0,0,0-.3-1.5,1.5,1.5,0,0,0-1.2-.4c-.2,0-.2-.1-.2-.4s0-.3.2-.3a9.3,9.3,0,0,0,2.2-.8l1.2-.7.3-.2c.2,0,.4.1.4.3l-.2,1.7a5.8,5.8,0,0,1,3.7-1.8,3.5,3.5,0,0,1,3.9,3.9v5.2c0,.9.1,1.5.4,1.7a2,2,0,0,0,1.4.6C145.9,110.9,146,111,146,111.3Z"/><path class="a" d="M157.9,103.9a.5.5,0,0,1-.5.4h-7.5c0,.5-.1,1-.1,1.5a5,5,0,0,0,1.1,3.4,3.7,3.7,0,0,0,2.9,1.2,3.9,3.9,0,0,0,2-.6,4,4,0,0,0,1.6-1.3h.3a.6.6,0,0,1,.1.4q0,.3-.9,1.2a8.5,8.5,0,0,1-1.9,1.4,5.6,5.6,0,0,1-6.2-1.4,5.8,5.8,0,0,1-1.7-4.4,6.4,6.4,0,0,1,1.6-4.5,5.4,5.4,0,0,1,4.2-1.8,4.8,4.8,0,0,1,3.5,1.3A4.3,4.3,0,0,1,157.9,103.9Zm-2.5-1.2a2.1,2.1,0,0,0-.7-1.7,2.4,2.4,0,0,0-1.8-.7,2.3,2.3,0,0,0-1.8.9,5.5,5.5,0,0,0-1.1,2.3h3.8a2.9,2.9,0,0,0,1.2-.2C155.3,103.1,155.4,103,155.4,102.7Z"/><path class="a" d="M170.8,108.2a20.3,20.3,0,0,0-1.2,3.4H160c-.1,0-.2-.1-.2-.3h0l7.4-10.3H164a2.7,2.7,0,0,0-1.7.6,4.2,4.2,0,0,0-1.1,1.6c0,.2-.2.3-.4.3s-.4-.1-.4-.3,1-2.6,1.2-3.3h8.8a.2.2,0,0,1,.2.2v.2l-7.3,10.2h4a2.7,2.7,0,0,0,1.7-.6,3.1,3.1,0,0,0,1.1-1.6c0-.1.2-.2.4-.2S170.8,108.1,170.8,108.2Z"/><path class="a" d="M94,50.3a14.8,14.8,0,1,0,18.4,9.9A14.8,14.8,0,0,0,94,50.3Zm16.6,9.2v.3a13.7,13.7,0,0,1,.7,3.4h-.9a11.4,11.4,0,0,0-.7-3.2v-.3ZM108.1,68a1.5,1.5,0,0,1-1.3-1.2l-6.6-1.6.2-.6,6.7.9a1.4,1.4,0,0,1,1.3-.6,1.6,1.6,0,0,1,1.4,1.7A1.5,1.5,0,0,1,108.1,68Zm1.3,1.8-1.1.2-.4-1H109Zm.3-8.4a1.7,1.7,0,0,1-1,2,1.5,1.5,0,0,1-1.7-.6l-6.7,1.4v-.6l6.4-2.1a1.6,1.6,0,0,1,1-1.1A1.6,1.6,0,0,1,109.7,61.4Zm-1.8-1.7.6-.8,1,.2-.6,1Zm1.8,5.4-.8-.7.9-.5.8.6Zm-2.4-10.5.2.2a12.3,12.3,0,0,1,2.2,2.9l-.9.4a12.1,12.1,0,0,0-2-2.6l-.2-.2Zm0,2.1a1.6,1.6,0,0,1,0,2.2,1.7,1.7,0,0,1-1.9.3l-5.3,4.1-.4-.5,4.9-4.6a1.7,1.7,0,0,1,.5-1.5A1.6,1.6,0,0,1,107.3,56.7ZM95.6,74.4a1.5,1.5,0,0,1-1.9,1,1.5,1.5,0,0,1-1.1-1.9,1.5,1.5,0,0,1,1.5-1.1L97,66.3l.4.3L95.3,73A1.4,1.4,0,0,1,95.6,74.4ZM88.3,60.3a1.5,1.5,0,0,1,1.3,1.3l6.5,1.9-.2.5-6.7-1.1a2,2,0,0,1-1.4.5,1.7,1.7,0,0,1-1.3-1.8A1.6,1.6,0,0,1,88.3,60.3Zm-1.2-1.9h1.1l.4,1H87.5Zm3.6.8a1.4,1.4,0,0,1-1.4-.1,1.6,1.6,0,0,1-.5-2.2,1.6,1.6,0,0,1,2.2-.4,1.5,1.5,0,0,1,.6,1.7l5,4.5-.4.4Zm7.2,14.2V66.6h.5l.9,6.7a1.6,1.6,0,0,1,.8,1.2,1.5,1.5,0,0,1-1.3,1.8A1.6,1.6,0,0,1,97.1,75,1.4,1.4,0,0,1,97.9,73.4Zm.6-11.2h-.6l-.5-6.7a1.7,1.7,0,0,1-.8-1.2,1.6,1.6,0,1,1,3.1-.3,1.3,1.3,0,0,1-.9,1.5Zm2.8-6.2a1.6,1.6,0,0,1-.2-1.5,1.6,1.6,0,0,1,2-.9,1.6,1.6,0,0,1,1,2,1.8,1.8,0,0,1-1.6,1l-3.1,5.9-.5-.2Zm4.7-.1h-1V55l1-.2Zm-3.7-4.3h.2a12.3,12.3,0,0,1,3.2,1.7l-.6.8a11.8,11.8,0,0,0-2.9-1.6H102Zm-1,.7.3,1-.9.6-.2-1Zm-4.6-1.2a10.2,10.2,0,0,1,3.5.1v.9a18.2,18.2,0,0,0-3.3-.1h-.3v-1Zm-.9,1,.7.8-.5.9-.7-.8ZM94.9,56l2.6,6.2-.5.2-3.3-5.9a1.5,1.5,0,0,1-1.3-.7,1.6,1.6,0,0,1,.5-2.2,1.7,1.7,0,0,1,2.2.6A1.7,1.7,0,0,1,94.9,56Zm-3.8-3.1a15.1,15.1,0,0,1,3.3-1.3l.3.9a12,12,0,0,0-3.1,1.3h-.2l-.5-.8Zm-.4,1.4,1.1.3v1.1l-1-.4ZM86.9,57a12,12,0,0,1,2.4-2.6l.6.7a10.7,10.7,0,0,0-2.2,2.5v.2l-.8-.5Zm-2.1,5.5a19.1,19.1,0,0,1,1-3.4l.9.4a16.8,16.8,0,0,0-.9,3.2v.2h-1Zm.6,6.1v-.2a14.1,14.1,0,0,1-.5-3.5h.9a18.8,18.8,0,0,0,.5,3.3v.2Zm.2-4.9,1-.6.7.8-.9.4Zm1.9,1.2a1.4,1.4,0,0,1,1.7.6l6.7-1V65l-6.5,1.8a1.6,1.6,0,0,1-1,1.1,1.8,1.8,0,0,1-2-1.1A1.6,1.6,0,0,1,87.5,64.9Zm-.4,3.3,1,.3-.6.9-1-.3Zm2.3,6.4-.2-.2a14.9,14.9,0,0,1-2.3-2.7l.8-.5a12.7,12.7,0,0,0,2.2,2.5l.2.2Zm0-2.1a1.5,1.5,0,0,1-.1-2.2,1.5,1.5,0,0,1,1.8-.4l5.1-4.3.4.5-4.7,4.8a2,2,0,0,1-.3,1.5A1.6,1.6,0,0,1,89.4,72.5Zm1.3.8,1-.2v1l-1,.3Zm3.9,4h-.3a18.7,18.7,0,0,1-3.2-1.5l.5-.8a19.4,19.4,0,0,0,3,1.3h.3Zm1-.6-.4-1.1.9-.6.3,1Zm4.6.9a13.8,13.8,0,0,1-3.5.1v-1h3.5l.2,1Zm.9-1-.8-.8.5-.9.7.7Zm.6-2.2a1.5,1.5,0,0,1,.1-1.8l-2.9-6.1.5-.2L103,72a1.5,1.5,0,0,1,1.3.7,1.5,1.5,0,0,1-.5,2.2A1.6,1.6,0,0,1,101.7,74.4Zm4,1.1a18.7,18.7,0,0,1-3.2,1.5l-.3-.9a11.1,11.1,0,0,0,2.9-1.4l.2-.2.6.8Zm-.8-1.7V72.7l1,.4v1Zm.7-1.9a1.6,1.6,0,0,1-.7-1.7L99.7,66l.4-.4,5.7,3.6a1.4,1.4,0,0,1,1.4.1,1.5,1.5,0,0,1,.6,2.1A1.6,1.6,0,0,1,105.6,71.9Zm4.1-.7a14.4,14.4,0,0,1-2.2,2.7l-.7-.7a9.6,9.6,0,0,0,2-2.5l.2-.2.8.4Zm1.8-5.6a13,13,0,0,1-.8,3.4l-1-.3a11.6,11.6,0,0,0,.8-3.2v-.3h1Z"/><path class="a" d="M122.2,41.1l17.6-.9-6.5,7.2c9.5-8.5,18.7-17.3,27.8-26.1,10.8,8.3,21.7,16.4,33.3,23.7C184,35.6,173,27.1,161.7,18.7l-.8-.6-.7.8C153.4,25.8,146.6,32.8,140,40l-19.8-2.4C113.4,26,106.5,14.4,99.6,2.8L98,0C91.5,10.9,85,21.8,78.6,32.8l-2.8,4.8L54.9,40.1c-6.8-7.3-13.7-14.5-20.7-21.7l-.7-.7-.9.6C21.4,26.6,10.4,35.2,0,44.5A402.7,402.7,0,0,0,33.3,20.8c9.1,8.9,18.3,17.7,27.8,26.1L55,40.3l18.6,1c-4.1,7.2-9.1,15.8-12.2,21.1-12.4.3-25.3.7-37.7,1.2l10.5.4V75.8h.9a3,3,0,0,0,3,2.5h.3a2.9,2.9,0,0,0,3-2.5h.8a2.9,2.9,0,0,0,3,2.5h.3a2.9,2.9,0,0,0,3-2.5h.8a2.9,2.9,0,0,0,3,2.5h.3a3,3,0,0,0,3-2.5h.7a3,3,0,0,0,3,2.5h.3a2.9,2.9,0,0,0,2.9-2.1v3a3.6,3.6,0,0,0,.8,2.4,4.1,4.1,0,0,0,2.8,1h.1c3.8-.1,4.1-3.1,4.1-3.2V69.2a3.6,3.6,0,0,0,2.6,1h.2c3.7-.1,4.1-3.1,4.1-3.2V57a3.3,3.3,0,0,0,2.6,1h.1c3.8-.1,4.1-3.1,4.1-3.2V44.1a3.6,3.6,0,0,0,2.6,1h.1c3.8-.1,4.1-3.1,4.1-3.2V19.3l.5-.8v.4c-.1.4-1.2,8.5,2.3,10.8a2.5,2.5,0,0,0,.3,2.9l1.1,1c.6.4.8.6.6,1.4s-.9,2.2-.1,3.5a2.4,2.4,0,0,0,2.3,1h.2a2.6,2.6,0,0,0,2.3-1c.8-1.3.1-3.1,0-3.4s0-1.1.6-1.5a9.4,9.4,0,0,0,1-1,2.7,2.7,0,0,0,.4-2.9c3.5-2.3,2.3-10.4,2.3-10.7v-.4l.6.9V41.9s.3,3.1,4.1,3.1h.1a3.6,3.6,0,0,0,2.6-.9V54.8s.3,3.1,4.1,3.1h.1a3.6,3.6,0,0,0,2.6-.9V67s.4,3.1,4.2,3.1h.1a3.6,3.6,0,0,0,2.6-.9V79.4s.3,3.1,4.1,3.1h.1a3.7,3.7,0,0,0,2.8-1,3.4,3.4,0,0,0,.8-2.3v-3a2.9,2.9,0,0,0,2.9,2.1h.3a3,3,0,0,0,3-2.5h.7a3.1,3.1,0,0,0,3.1,2.5h.2a2.9,2.9,0,0,0,3-2.5h.8a3,3,0,0,0,3.1,2.5h.2a3,3,0,0,0,3-2.5h.8a2.9,2.9,0,0,0,3,2.5h.2a3.2,3.2,0,0,0,3.1-2.5h.9V64.2l10.5-.4c-12.3-.5-25.6-.9-37.8-1.1C130.5,55.4,126.4,48.3,122.2,41.1ZM41.3,74.8h-.8v.5a2,2,0,0,1-2,2h-.3a2.1,2.1,0,0,1-2.1-2.1v-.4h-.8V64.9h6Zm7.1,0h-.8v.5a2,2,0,0,1-2,2h-.3a2,2,0,0,1-2-2.1v-.4h-.7V64.9h6Zm7,0h-.8v.5a2,2,0,0,1-2,2h-.3a2,2,0,0,1-2-2.1v-.4h-.8V64.9h6Zm7.1,0h-.8v.5c-.1.2-.2,2-2.1,2h-.2a2.1,2.1,0,0,1-2.1-2.1v-.4h-.8V64.9h6Zm3.6,6.7a2.4,2.4,0,0,1-2-.7,1.8,1.8,0,0,1-.5-1.6V64.6l5.6-9.5V79.3C69.2,79.4,69,81.5,66.1,81.5ZM73,69.1a2.4,2.4,0,0,1-2-.7,2.5,2.5,0,0,1-.6-1.6V52.6l5.7-9.2V66.9C76.1,67,75.9,69.1,73,69.1Zm6.9-12.2a3.3,3.3,0,0,1-2.1-.6,2.4,2.4,0,0,1-.5-1.7V41.5L83,32.2V54.7C83,54.8,82.7,56.9,79.9,56.9ZM86.7,44a2.4,2.4,0,0,1-2-.7,2.5,2.5,0,0,1-.6-1.6V30.4L89.8,21V41.8C89.8,41.9,89.5,44,86.7,44Zm14.7-15-.7.3.5.6a1.4,1.4,0,0,1,0,2,3.2,3.2,0,0,1-.9.8,2.3,2.3,0,0,0-.9,2.7h0a3,3,0,0,1,.1,2.5,1.6,1.6,0,0,1-1.4.6h-.2c-.7,0-1.2-.2-1.4-.6a2.7,2.7,0,0,1,.2-2.5,2.2,2.2,0,0,0-1-2.7,3.2,3.2,0,0,1-.9-.8,1.5,1.5,0,0,1,0-2l.5-.6-.7-.3c-2.8-1.2-2.5-7.6-2.2-10.1v-2L98,7.5l5.7,9.4v2.2C104,21.4,104.2,27.8,101.4,29Zm10,14.3a2.4,2.4,0,0,1-2,.7c-2.8-.1-3.1-2.1-3.1-2.2V21.2l5.7,9.4V41.7A2,2,0,0,1,111.4,43.3Zm6.9,12.9a2.8,2.8,0,0,1-2.1.7,3,3,0,0,1-3.1-2.1V32.5l1.4,2.2,4.3,7.1V54.6A2.2,2.2,0,0,1,118.3,56.2Zm6.8,12.2a2.4,2.4,0,0,1-2,.7c-2.9-.1-3.1-2.1-3.1-2.2V43.6l5.7,9.2v14A2.5,2.5,0,0,1,125.1,68.4ZM132,80.8a2.4,2.4,0,0,1-2,.7h0c-2.9-.1-3.1-2.1-3.1-2.2V55.1l5.7,9.5V79.2A2.5,2.5,0,0,1,132,80.8Zm22.8-15.9h6v9.8H160v.5a2.1,2.1,0,0,1-2.1,2.1h-.2a2.1,2.1,0,0,1-2.1-2.1v-.5h-.8Zm-7,0h6v9.8H153v.5a2.1,2.1,0,0,1-2.1,2.1h-.2c-1.8,0-2-1.9-2-2.1v-.5h-.7Zm-7.1,0h6v9.8h-.8v.5c-.1.2-.2,2.1-2.1,2.1h-.2a2.1,2.1,0,0,1-2.1-2.1v-.5h-.8Zm-1.1,0v9.8h-.8v.5a2.1,2.1,0,0,1-2.1,2.1h-.2a2,2,0,0,1-2-2.1v-.5h-.8V65h6Z"/><path class="a" d="M97.3,27.3c-.1-.9-1-1.5-1.8-2s-1.8-1.2-1.6-2.4.5-1.1,1.1-1.1h.4a.6.6,0,0,0-.1.7.4.4,0,0,0,.5.2h.3l.2-.3c.3-.4-.2-1-.7-1.2a1.7,1.7,0,0,0-2.1.8,2.5,2.5,0,0,0,.3,2.7,7.5,7.5,0,0,0,2,1.5,2.4,2.4,0,0,1,.9,1.1.7.7,0,0,1-.3.7v-.2a.8.8,0,0,0-.8-.2.5.5,0,0,0-.2.8h.1c0,.1,0,.1.1.1a1.1,1.1,0,0,0,1.3,0A1.2,1.2,0,0,0,97.3,27.3Z"/><circle class="a" cx="98.1" cy="31.2" r="1"/><path class="a" d="M101.2,17.7a2,2,0,0,0-2.3,1.1.7.7,0,0,1-.8-.4,19.4,19.4,0,0,1,.1-2.2c0-.3.5-.8.5-.8a2,2,0,0,0,.5-.9A1.3,1.3,0,0,0,98,13.1h-.1a1.2,1.2,0,0,0-1.1,1.4,2,2,0,0,0,.5.9,3.8,3.8,0,0,1,.5.8v2.2a.6.6,0,0,1-.7.4,2.2,2.2,0,0,0-2.4-1.1c-1.7.3-1.8,1.9-1.4,2.3s0,.1.1-.2a1.2,1.2,0,0,1,1.5-.5c.8.4,1.5-.1,1.7,0h.3a2.2,2.2,0,0,1,.8,1.5c0,1.1-.1,4.5-.1,4.7s-.2.6.4.5.4-.5.4-.5a33,33,0,0,1-.1-4.7,1.9,1.9,0,0,1,.7-1.5h.3c.2-.1,1,.4,1.7,0a1.1,1.1,0,0,1,1.5.5c.1.3.2.2.2.2S102.9,18,101.2,17.7Z"/><path class="a" d="M98.9,27.3c.2-1,1-1.5,1.8-2s1.8-1.3,1.6-2.4a1.2,1.2,0,0,0-1.1-1.1h-.4c.2.2.3.4.1.6a.5.5,0,0,1-.5.3h-.2l-.3-.2c-.2-.4.3-1,.7-1.2a1.7,1.7,0,0,1,2.1.8,2.3,2.3,0,0,1-.3,2.6,7.8,7.8,0,0,1-2,1.6,1.6,1.6,0,0,0-.8,1,.8.8,0,0,0,.2.8c0-.1,0-.2.1-.2a.5.5,0,1,1,.9.5h0a.1.1,0,0,1-.1.1,1.1,1.1,0,0,1-1.4-.1A1.1,1.1,0,0,1,98.9,27.3Z"/><circle class="a" cx="23.1" cy="147.9" r="1.5"/><circle class="a" cx="28.6" cy="147.9" r="1.5"/><circle class="a" cx="34.1" cy="147.9" r="1.5"/><circle class="a" cx="39.6" cy="147.9" r="1.5"/><circle class="a" cx="45.1" cy="147.9" r="1.5"/><circle class="a" cx="50.6" cy="147.9" r="1.5"/><circle class="a" cx="56.1" cy="147.9" r="1.5"/><circle class="a" cx="61.6" cy="147.9" r="1.5"/><circle class="a" cx="67.1" cy="147.9" r="1.5"/><circle class="a" cx="72.6" cy="147.9" r="1.5"/><circle class="a" cx="78.1" cy="147.9" r="1.5"/><circle class="a" cx="83.6" cy="147.9" r="1.5"/><circle class="a" cx="89.1" cy="147.9" r="1.5"/><circle class="a" cx="94.7" cy="147.9" r="1.5"/><circle class="a" cx="100.2" cy="147.9" r="1.5"/><circle class="a" cx="105.7" cy="147.9" r="1.5"/><circle class="a" cx="111.1" cy="147.9" r="1.5"/><circle class="a" cx="116.6" cy="147.9" r="1.5"/><circle class="a" cx="122.1" cy="147.9" r="1.5"/><circle class="a" cx="127.6" cy="147.9" r="1.5"/><circle class="a" cx="133.1" cy="147.9" r="1.5"/><circle class="a" cx="138.7" cy="147.9" r="1.5"/><circle class="a" cx="144.2" cy="147.9" r="1.5"/><circle class="a" cx="149.7" cy="147.9" r="1.5"/><circle class="a" cx="155.2" cy="147.9" r="1.5"/><circle class="a" cx="160.7" cy="147.9" r="1.5"/><circle class="a" cx="166.2" cy="147.9" r="1.5"/><circle class="a" cx="171.7" cy="147.9" r="1.5"/></svg>