<svg xmlns="http://www.w3.org/2000/svg" viewBox="0 0 131.3 172.7"><defs><style>.a{fill:#fff;}</style></defs><path class="a" d="M32.6,140.2v18.9c0,9.3-5.9,13.6-14.9,13.6S2.9,168.4,2.9,159.1V140.2H14.5V158c0,2.5.1,4.7,3.2,4.7s3.2-2.2,3.2-4.7V140.2Z"/><path class="a" d="M36.7,140.2H47.9l10.5,17.7h.4a43.8,43.8,0,0,1-1-8.1v-9.6H68.9v32H57.8L47.5,155.4h-.3a35.8,35.8,0,0,1,.7,6.4v10.4H36.7Z"/><polygon class="a" points="73 140.3 94.6 140.3 94.6 149 84.8 149 84.8 152 93.8 152 93.8 160.3 84.8 160.3 84.8 163.4 95 163.4 95 172.2 73 172.2 73 140.3"/><path class="a" d="M99,172.2h14.8c9.4,0,16.1-6.1,16.1-15.5,0-11.8-8.2-16.5-19-16.5H99Zm11.7-22h.7c4.3,0,6.9,1.9,6.9,6.4s-3,6-6.9,6h-.7Z"/><path class="a" d="M65.6,90.3A24.8,24.8,0,0,0,90.4,65.6V4.8a62.1,62.1,0,0,0-8.6-2.9V65.6a16.2,16.2,0,0,1-32.3,0V1.9a62.1,62.1,0,0,0-8.6,2.9V65.6A24.8,24.8,0,0,0,65.6,90.3Z"/><path class="a" d="M65.6,76.7A11.2,11.2,0,0,0,76.8,65.6V.9A61.1,61.1,0,0,0,68.2,0V65.6a2.6,2.6,0,0,1-5.1,0V0a61.1,61.1,0,0,0-8.6.9V65.6A11.1,11.1,0,0,0,65.6,76.7Z"/><path class="a" d="M65.6,104a38.4,38.4,0,0,0,38.5-38.4V12.4a59.4,59.4,0,0,0-8.7-5.3V65.6a29.8,29.8,0,1,1-59.5,0V7.1a59.4,59.4,0,0,0-8.7,5.3V65.6A38.4,38.4,0,0,0,65.6,104Z"/><path class="a" d="M65.6,117.7a52.1,52.1,0,0,0,52.1-52.1v-40a62.1,62.1,0,0,0-8.6-9.2V65.6a43.5,43.5,0,0,1-86.9,0V16.4a62.1,62.1,0,0,0-8.6,9.2v40A52.1,52.1,0,0,0,65.6,117.7Z"/><path class="a" d="M122.8,33.3V65.6a57.2,57.2,0,0,1-114.3,0L8.3,65V33.6a65.6,65.6,0,1,0,123,32A65.1,65.1,0,0,0,122.8,33.3Z"/></svg>