<?xml version="1.0" encoding="UTF-8"?><svg id="b" xmlns="http://www.w3.org/2000/svg" viewBox="0 0 426.87 426.88"><g id="c"><path d="M211.28,426.88c-.15,0-.29,0-.41-.02-2.11-.2-3.43-1.79-3.57-1.97l-.15-.19-.09-.23c-.04-.1-3.97-10.47-10.6-17.16-5.81-5.87-6.55-13.69-5.68-19.65-1.48,1.01-3.25,1.72-5.11,1.44-2.74-.42-4.87-2.88-6.32-7.3-.8-1.35-2.42-6.31,2.04-21.52-4.8,4.7-12.79,10.31-23.59,10.31-2.93,0-6.07-.41-9.4-1.37l-.29-.08-.24-.18c-.54-.42-12.8-10.33,3.69-35.14-1.49-.5-3.26-1.46-4.13-3.27-.67-1.4-.67-3,0-4.79-16.45-.88-28.69-6.25-36.38-15.97-11.48-14.5-8.87-33.53-8.4-36.38-2.82,1.85-5.21,2.37-7.25,1.61-2.09-.79-3.15-2.76-3.67-4.39-25.1,16.07-34.8,3.63-35.21,3.08l-.18-.24-.08-.29c-4.21-15.71,3.44-26.84,9.51-32.83-15.28,4.19-20.21,2.49-21.55,1.66-4.4-1.53-6.81-3.7-7.19-6.45-.25-1.86,.49-3.62,1.53-5.08-5.97,.76-13.79-.11-19.55-6.03-6.58-6.75-16.87-10.86-16.97-10.9l-.36-.14-.25-.3c-1.32-1.54-1.48-2.99-1.38-3.93,.21-2.11,1.82-3.41,2-3.55l.19-.15,.23-.08c.1-.04,10.5-3.89,17.25-10.46,5.91-5.76,13.74-6.44,19.7-5.53-.99-1.49-1.7-3.27-1.4-5.12,.44-2.74,2.92-4.85,7.35-6.26,1.36-.79,6.33-2.37,21.5,2.21-5.92-6.15-13.28-17.47-8.68-33.07l.08-.29,.18-.23c.42-.54,10.43-12.72,35.12,3.97,.57-1.63,1.68-3.6,3.82-4.32,2.68-.9,5.93,.41,9.87,3.99-2.24-5.56-2.42-9.24-2.42-9.48v-.11s0-.11,0-.11c4.36-39.99,32.48-43.77,46.39-43.14,0-1.31,.43-2.29,.88-2.95,.96-1.42,2.5-2.2,3.82-2.62-16.12-25.06-3.72-34.78-3.17-35.19l.24-.18,.29-.08c15.7-4.25,26.85,3.37,32.86,9.43-4.23-15.28-2.54-20.2-1.72-21.54,1.52-4.4,3.68-6.82,6.43-7.2,1.86-.26,3.62,.48,5.09,1.51-.78-5.97,.08-13.79,5.97-19.57,6.73-6.6,10.81-16.9,10.85-17l.14-.36,.29-.25c1.54-1.32,2.99-1.49,3.93-1.4,2.11,.21,3.42,1.81,3.56,1.99l.15,.19,.08,.23c.04,.1,3.92,10.49,10.51,17.22,5.78,5.9,6.47,13.72,5.58,19.68,1.49-1,3.26-1.71,5.12-1.41,2.74,.44,4.86,2.9,6.28,7.33,.8,1.36,2.38,6.32-2.15,21.51,6.13-5.94,17.43-13.32,33.04-8.76l.29,.08,.24,.18c.54,.42,12.75,10.39-3.87,35.12,1.56,.53,3.42,1.57,4.22,3.56,.64,1.58,.45,3.42-.55,5.48,2.87-.81,4.63-.92,4.73-.92h.12s.11,0,.11,0c15.98,1.49,27.84,7.01,35.25,16.41,8.97,11.37,9.11,25.57,8.39,33.09,1.37-.24,2.61-.04,3.7,.58,1.62,.93,2.49,2.6,2.95,4.01,25.01-16.18,34.77-3.81,35.18-3.26l.18,.24,.08,.29c4.29,15.69-3.29,26.86-9.34,32.88,15.26-4.27,20.2-2.6,21.54-1.78,4.4,1.5,6.83,3.66,7.22,6.41,.26,1.86-.48,3.62-1.5,5.09,5.97-.79,13.79,.04,19.58,5.92,6.61,6.71,16.93,10.77,17.03,10.81l.36,.14,.25,.29c1.33,1.54,1.5,2.98,1.41,3.93-.2,2.11-1.8,3.42-1.98,3.56l-.19,.15-.23,.08c-.1,.04-10.48,3.94-17.19,10.56-5.88,5.8-13.71,6.51-19.67,5.63,1,1.49,1.71,3.26,1.42,5.11-.43,2.74-2.89,4.86-7.32,6.3-1.36,.8-6.31,2.4-21.51-2.1,5.95,6.11,13.37,17.4,8.85,33.02l-.08,.29-.18,.24c-.42,.54-10.37,12.77-35.14-3.79-.56,1.63-1.66,3.61-3.8,4.34-2.83,.97-6.32-.54-10.61-4.61,2.27,5.92,2.35,9.83,2.35,10.08v.12s-.01,.12-.01,.12c-2.42,17.34-9.38,29.52-20.69,36.21-8.47,5.01-17.78,5.93-24.81,5.65,.39,1.54,.25,2.93-.41,4.15-.92,1.68-2.61,2.57-4.05,3.04,16.25,24.97,3.9,34.76,3.35,35.18l-.24,.18-.29,.08c-15.68,4.33-26.87-3.22-32.91-9.25,4.31,15.25,2.65,20.19,1.83,21.54-1.49,4.41-3.64,6.84-6.39,7.24-1.87,.27-3.62-.47-5.1-1.49,.81,5.97,0,13.79-5.87,19.6-6.71,6.65-10.72,16.96-10.76,17.06l-.14,.36-.29,.25c-1.33,1.15-2.58,1.44-3.51,1.44Zm-1.42-3.78c.25,.24,.75,.62,1.31,.67,.39,.03,.84-.12,1.3-.45,.84-2.05,4.83-11.33,11.32-17.75,6.88-6.82,5.49-17.29,3.8-21.88l-4.29-11.61,7.03,10.19c.85,1.23,3.82,4.67,6.18,4.32,1.9-.28,3.19-3.05,3.95-5.34l.13-.4,.12-.09c.3-.63,2.36-6.17-4.53-26.51l-4.64-13.7,7.44,12.4c.5,.83,12.37,20.11,34.28,14.28,1.49-1.35,9.8-10.42-5.52-32.68l-1.53-2.22,2.69-.21c.8-.07,3.27-.57,4.01-1.95,.46-.84,.26-2.06-.58-3.62l-1.36-2.52,2.85,.24c14.46,1.19,39.46-2.28,44.63-38.9-.05-.95-.63-8.67-7.16-18.51l2.44-1.91c.73,.79,1.45,1.58,2.18,2.38,1.15,1.26,2.3,2.53,3.51,3.82,5.8,6.21,8.5,6.18,9.39,5.88,1.58-.53,2.18-3.22,2.27-4.12l.26-2.67,2.19,1.54c22.04,15.57,31.21,7.42,32.61,5.92,6.09-21.84-13.04-33.94-13.86-34.45l-12.31-7.59,13.64,4.8c20.35,7.17,25.87,5.12,26.46,4.85l.24-.27,.24,.03c2.29-.72,5.09-1.99,5.38-3.88,.37-2.36-3.03-5.37-4.25-6.24l-9.97-7.1,11.43,4.38c4.57,1.75,15.03,3.27,21.93-3.53,6.63-6.54,16.2-10.44,18-11.15,.24-.25,.63-.75,.67-1.31,.03-.41-.12-.85-.45-1.31-2.05-.84-11.31-4.86-17.72-11.37-6.8-6.9-17.28-5.54-21.87-3.85l-11.62,4.26,10.21-7c1.23-.85,4.68-3.81,4.34-6.17-.27-1.9-3.05-3.2-5.33-3.96l-.39-.13-.09-.12c-.63-.3-6.16-2.37-26.52,4.46l-13.71,4.6,12.42-7.41c.83-.49,20.14-12.31,14.37-34.24-1.35-1.49-10.4-9.83-32.7,5.44l-2.22,1.52-.21-2.69c-.07-.79-.56-3.24-1.9-4-.78-.44-1.89-.32-3.3,.37l-2.64,1.29,.42-2.9c.87-6.04,1.88-21.36-7.45-33.19-6.84-8.68-17.93-13.8-32.96-15.22-.58,.05-3.68,.41-8.14,2.26l-6.03,2.5,4.25-4.95c2.34-2.72,3.33-4.97,2.79-6.32-.6-1.51-3.21-2.09-4.07-2.18l-2.66-.27,1.55-2.18c15.63-22,7.5-31.19,6.01-32.6-21.88-6.16-34.36,13.57-34.48,13.77l-7.68,12.44,4.89-13.78c7.22-20.34,5.19-25.86,4.92-26.45l-.27-.24,.03-.24c-.72-2.29-1.97-5.09-3.87-5.4-2.35-.37-5.37,3.01-6.25,4.23l-7.13,9.95,4.41-11.42c1.76-4.56,3.31-15.02-3.47-21.94-6.52-6.65-10.4-16.23-11.1-18.03-.25-.24-.75-.63-1.31-.68-.41-.03-.85,.11-1.31,.44-.85,2.05-4.89,11.3-11.41,17.69-6.92,6.78-5.58,17.26-3.91,21.86l4.23,11.63-6.98-10.23c-.85-1.23-3.81-4.68-6.16-4.36-1.9,.27-3.21,3.04-3.97,5.32l-.13,.39-.12,.09c-.3,.63-2.39,6.15,4.39,26.53l4.56,13.72-7.38-12.44c-.49-.83-12.25-20.17-34.2-14.46-1.5,1.35-9.86,10.37,5.35,32.71l1.52,2.23-2.69,.2c-.8,.06-3.08,.51-3.93,1.77-.41,.6-.45,1.39-.13,2.41l.7,2.2-2.3-.19c-15.02-1.21-40.82,2.4-44.99,40.12,.08,.97,.92,9.12,8.34,19.18l-2.4,1.97c-.9-.98-1.78-1.96-2.68-2.95-1.13-1.26-2.28-2.52-3.47-3.81-5.77-6.25-8.47-6.23-9.36-5.93-1.58,.53-2.2,3.21-2.29,4.11l-.27,2.66-2.18-1.55c-21.95-15.69-31.17-7.58-32.58-6.09-6.21,21.81,12.86,34.01,13.68,34.52l12.27,7.66-13.61-4.87c-20.31-7.27-25.85-5.25-26.44-4.99l-.25,.26-.24-.03c-2.3,.71-5.1,1.96-5.41,3.85-.38,2.35,3,5.38,4.22,6.26l9.94,7.16-11.41-4.45c-4.56-1.78-15.01-3.35-21.95,3.41-6.67,6.5-16.25,10.36-18.06,11.05-.25,.25-.63,.75-.68,1.31-.04,.41,.11,.85,.44,1.31,2.05,.85,11.29,4.92,17.66,11.46,6.76,6.93,17.25,5.63,21.85,3.97l11.64-4.2-10.24,6.95c-1.24,.84-4.7,3.78-4.37,6.15,.26,1.9,3.03,3.22,5.31,3.99l.39,.13,.09,.12c.63,.3,6.15,2.41,26.54-4.32l13.73-4.53-12.46,7.34c-.83,.49-20.21,12.2-14.55,34.16,1.34,1.5,10.35,9.88,32.72-5.27l2.23-1.51,.19,2.69c.07,.89,.62,3.57,2.17,4.14,.83,.31,3.36,.44,8.87-5.02l7.97-7.91-5.53,9.78c-1.65,2.92-2.06,4.71-2.06,4.72-.03,.16-3.54,19.95,7.75,34.19,7.19,9.06,18.81,14.04,34.55,14.8,.23-.03,.86-.13,1.77-.36l3.9-.97-2.23,3.34c-.9,1.35-1.85,3.23-1.24,4.51,.68,1.43,3.21,1.98,4.05,2.06l2.67,.25-1.53,2.19c-15.52,22.08-7.34,31.23-5.84,32.63,21.86,6.04,33.91-13.13,34.41-13.95l7.56-12.33-4.77,13.65c-7.11,20.38-5.05,25.89-4.78,26.47l.27,.24-.03,.24c.73,2.29,2,5.08,3.89,5.38,2.36,.35,5.36-3.04,6.22-4.27l7.08-9.99-4.35,11.44c-1.74,4.57-3.23,15.04,3.59,21.92,6.55,6.62,10.49,16.17,11.2,17.98ZM46.98,180.64h0Zm105.69,38.59c-23.74-.91-51.92,4.28-73.04,15.26,23.89-7.25,48.37-11.67,73.04-15.26h0Zm-72.8,24.83c12.77-4,26.85-8.7,39.81-11.69,4.44-1.01,8.98-1.87,13.34-1.94,0,0-.28-3.01-.28-3.01-14.29,3.41-28.85,8.44-40.02,18.27,9.19-6.02,19.59-9.66,30.07-12.68,6.59-1.96,18-4.12,24.87-5.54,0,0-14.61-.08-14.61-.08-9.62,.16-18.49,3.12-27.48,6.02-8.78,3.05-17.4,6.52-25.72,10.65h0Zm13.42,14.89c16.1-7.83,31.94-16.06,48.23-23.38,5.31-2.27,10.84-4.74,16.42-5.95,0,0-.8-2.89-.8-2.89-8.05,3.32-15.82,7.13-23.34,11.51-7.31,4.49-15.11,9.23-19.86,16.56,5.59-6.59,13.44-10.6,20.92-14.64,7.59-3.93,15.48-7.43,23.39-10.62l-.8-2.89c-3.12,.63-6.04,1.56-8.85,2.65-19.43,7.88-37.68,18.4-55.32,29.66h0Zm-42.19-38.8c13,.06,27.89-.23,40.92-.6,13.63-.42,27.26-.93,40.88-1.61,0,0-.22-3.05-.22-3.05-11.44,1.2-22.83,2.64-34.19,4.44-5.68,.88-11.34,1.89-16.98,3.06-5.56,1.33-11.4,2.26-16.51,4.93,5.32-2.1,11.13-2.65,16.76-3.55,5.67-.81,11.36-1.48,17.05-2.17,8.52-.98,25.65-2.82,34.18-3.67l-.22-3.05c-6.81,.26-13.62,.64-20.43,.97-20.14,1.06-41.14,2.4-61.23,4.31h0Zm102.06-15c-24.57-4.21-48.94-9.26-72.63-17.11,20.85,11.52,48.88,17.42,72.63,17.11h0Zm-72.14-26.67c8.21,4.35,16.74,8.03,25.44,11.3,8.91,3.13,17.7,6.31,27.32,6.71,0,0,14.6,.29,14.6,.29-6.75-1.58-18.22-4.05-24.72-6.17-10.4-3.28-20.71-7.19-29.74-13.44,10.91,10.11,25.35,15.52,39.54,19.28l.36-3.01c-4.36-.17-8.87-1.15-13.29-2.27-12.9-3.33-26.81-8.36-39.5-12.7h0Zm13.8-14.54c17.35,11.7,35.32,22.69,54.54,31.06,2.79,1.16,5.68,2.16,8.78,2.87,0,0,.87-2.87,.87-2.87-7.83-3.39-15.62-7.09-23.11-11.21-7.37-4.23-15.12-8.44-20.54-15.17,3.33,5.63,8.74,9.72,13.99,13.48,8.94,6.18,18.56,11.25,28.48,15.69,0,0,.87-2.87,.87-2.87-5.55-1.35-11.01-3.97-16.26-6.37-16.11-7.73-31.73-16.36-47.62-24.6h0Zm-43.16,37.72c20.03,2.42,40.99,4.29,61.1,5.86,6.8,.5,13.6,1.05,20.4,1.49,0,0,.3-3.05,.3-3.05-8.49-1.07-25.6-3.34-34.08-4.54-5.67-.83-11.34-1.65-16.99-2.6-5.6-1.04-11.39-1.74-16.66-3.97,5.05,2.81,10.85,3.88,16.38,5.35,5.6,1.32,11.24,2.47,16.9,3.5,11.31,2.09,22.66,3.81,34.07,5.3,0,0,.3-3.05,.3-3.05-13.6-1.03-27.21-1.89-40.82-2.65-13.01-.7-27.91-1.37-40.89-1.64h0Zm158.89-50.38c.85-23.74-4.42-51.91-15.45-73,7.31,23.87,11.8,48.34,15.45,73h0Zm-25.02-72.73c4.03,12.76,8.77,26.83,11.79,39.78,1.02,4.44,1.9,8.97,1.97,13.34,0,0,3.01-.29,3.01-.29-3.44-14.28-8.52-28.83-18.38-39.97,6.05,9.17,9.72,19.57,12.76,30.04,1.98,6.59,4.16,17.99,5.61,24.85,0,0,.04-14.61,.04-14.61-.19-9.62-3.17-18.49-6.09-27.46-3.07-8.77-6.56-17.38-10.72-25.69h0Zm-14.85,13.46c7.87,16.07,16.14,31.89,23.51,48.17,2.28,5.3,4.77,10.83,6,16.4,0,0,2.89-.8,2.89-.8-3.34-8.04-7.17-15.8-11.57-23.31-4.51-7.29-9.27-15.08-16.62-19.81,6.61,5.57,10.64,13.41,14.7,20.88,3.95,7.58,7.47,15.46,10.69,23.36l2.89-.8c-.64-3.12-1.58-6.03-2.67-8.85-7.93-19.41-18.5-37.63-29.81-55.24h0Zm38.69-42.29c-.02,13,.3,27.89,.71,40.92,.45,13.63,1.01,27.25,1.72,40.87,0,0,3.05-.23,3.05-.23-1.23-11.44-2.7-22.83-4.53-34.18-.9-5.68-1.92-11.34-3.11-16.97-1.35-5.56-2.29-11.39-4.98-16.5,2.11,5.32,2.68,11.13,3.59,16.75,.82,5.67,1.51,11.36,2.21,17.04,1,8.52,2.89,25.64,3.76,34.17l3.05-.23c-.28-6.81-.67-13.62-1.02-20.43-1.11-20.14-2.51-41.13-4.47-61.22h0Zm15.27,102.02c4.15-24.58,9.13-48.96,16.92-72.68-11.46,20.88-17.29,48.93-16.92,72.68h0Zm26.48-72.21c-4.32,8.22-7.98,16.76-11.23,25.47-3.1,8.91-6.26,17.72-6.64,27.33,0,0-.25,14.6-.25,14.6,1.56-6.76,4.01-18.23,6.11-24.74,3.25-10.41,7.13-20.73,13.36-29.78-10.08,10.94-15.45,25.39-19.18,39.59l3.01,.35c.16-4.36,1.13-8.88,2.24-13.3,3.29-12.91,8.29-26.83,12.59-39.54h0Zm14.58,13.76c-11.66,17.38-22.6,35.38-30.91,54.63-1.15,2.79-2.15,5.69-2.85,8.79,0,0,2.87,.86,2.87,.86,3.37-7.84,7.05-15.64,11.15-23.14,4.21-7.38,8.4-15.14,15.12-20.58-5.62,3.35-9.7,8.77-13.44,14.03-6.16,8.96-11.2,18.59-15.61,28.52,0,0,2.87,.86,2.87,.86,1.34-5.55,3.94-11.02,6.33-16.28,7.69-16.13,16.28-31.78,24.47-47.69h0Zm-37.83-43.06c-2.36,20.04-4.18,41.01-5.7,61.11-.48,6.8-1.01,13.6-1.43,20.4,0,0,3.05,.29,3.05,.29,1.05-8.5,3.28-25.61,4.45-34.09,.81-5.67,1.62-11.34,2.55-17,1.03-5.6,1.71-11.4,3.93-16.67-2.79,5.05-3.85,10.86-5.31,16.4-1.3,5.61-2.44,11.25-3.45,16.91-2.06,11.32-3.75,22.67-5.21,34.08,0,0,3.05,.29,3.05,.29,.99-13.6,1.82-27.21,2.54-40.83,.67-13.01,1.29-27.91,1.53-40.9h0Zm50.8,158.75c23.74,.78,51.9-4.56,72.96-15.65-23.85,7.38-48.31,11.93-72.96,15.65h0Zm72.67-25.22c-12.75,4.07-26.8,8.84-39.75,11.9-4.44,1.04-8.96,1.92-13.33,2.01,0,0,.3,3.01,.3,3.01,14.27-3.48,28.81-8.59,39.92-18.48-9.16,6.07-19.54,9.77-30.01,12.84-6.58,2-17.98,4.21-24.84,5.67,0,0,14.61,0,14.61,0,9.62-.21,18.48-3.21,27.44-6.16,8.76-3.1,17.36-6.61,25.66-10.79h0Zm-13.5-14.82c-16.05,7.91-31.85,16.23-48.11,23.64-5.3,2.3-10.81,4.8-16.39,6.04,0,0,.81,2.89,.81,2.89,8.03-3.37,15.79-7.22,23.28-11.63,7.28-4.53,15.06-9.31,19.77-16.67-5.55,6.62-13.38,10.67-20.84,14.75-7.57,3.97-15.44,7.51-23.34,10.75l.81,2.89c3.12-.65,6.03-1.59,8.84-2.7,19.39-7.98,37.58-18.6,55.16-29.96h0Zm42.39,38.58c-13,.01-27.89,.38-40.92,.82-13.63,.49-27.25,1.08-40.87,1.83,0,0,.24,3.05,.24,3.05,11.43-1.26,22.82-2.76,34.17-4.62,5.68-.91,11.33-1.95,16.96-3.15,5.56-1.36,11.38-2.32,16.49-5.02-5.31,2.13-11.12,2.71-16.74,3.64-5.67,.84-11.35,1.54-17.04,2.26-8.51,1.02-25.63,2.95-34.16,3.85l.24,3.05c6.81-.3,13.62-.71,20.43-1.07,20.13-1.17,41.12-2.62,61.2-4.63h0Zm-101.98,15.54c24.59,4.08,48.98,9,72.72,16.73-20.91-11.41-48.97-17.16-72.72-16.73h0Zm72.28,26.29c-8.23-4.3-16.78-7.94-25.5-11.17-8.92-3.08-17.73-6.21-27.35-6.57,0,0-14.6-.21-14.6-.21,6.76,1.55,18.24,3.96,24.75,6.04,10.42,3.23,20.75,7.08,29.81,13.28-10.97-10.05-25.43-15.38-39.64-19.07l-.34,3.01c4.37,.15,8.88,1.1,13.3,2.2,12.92,3.26,26.85,8.22,39.57,12.49h0Zm-13.72,14.61c-17.41-11.61-35.44-22.5-54.71-30.77-2.8-1.15-5.69-2.13-8.8-2.83,0,0-.85,2.88-.85,2.88,7.85,3.35,15.66,7.01,23.17,11.09,7.4,4.19,15.17,8.36,20.62,15.06-3.36-5.61-8.79-9.67-14.06-13.4-8.97-6.14-18.62-11.15-28.56-15.54,0,0-.85,2.88-.85,2.88,5.56,1.32,11.03,3.91,16.3,6.28,16.15,7.65,31.82,16.2,47.75,24.35h0Zm42.96-37.94c-20.05-2.31-41.02-4.07-61.13-5.54-6.8-.47-13.6-.98-20.41-1.38,0,0-.28,3.05-.28,3.05,8.5,1.02,25.62,3.21,34.1,4.36,5.67,.8,11.35,1.59,17,2.51,5.6,1.01,11.4,1.68,16.68,3.89-5.06-2.78-10.87-3.82-16.41-5.26-5.61-1.29-11.25-2.41-16.91-3.41-11.32-2.03-22.68-3.69-34.1-5.12,0,0-.28,3.05-.28,3.05,13.6,.95,27.22,1.74,40.84,2.43,13.01,.63,27.91,1.22,40.9,1.43h0Zm-158.62,51.22c-.72,23.75,4.69,51.88,15.84,72.92-7.44-23.83-12.06-48.28-15.84-72.92h0Zm25.41,72.6c-4.1-12.74-8.91-26.78-12-39.72-1.05-4.43-1.95-8.96-2.04-13.33,0,0-3.01,.3-3.01,.3,3.52,14.26,8.67,28.78,18.59,39.87-6.09-9.14-9.82-19.52-12.92-29.97-2.01-6.58-4.26-17.97-5.74-24.82,0,0,.04,14.61,.04,14.61,.24,9.62,3.26,18.47,6.23,27.43,3.12,8.75,6.65,17.35,10.86,25.63h0Zm14.78-13.54c-7.95-16.03-16.31-31.81-23.76-48.05-2.31-5.29-4.83-10.8-6.08-16.37,0,0-2.89,.82-2.89,.82,3.39,8.02,7.26,15.77,11.7,23.25,4.54,7.27,9.35,15.03,16.72,19.73-6.64-5.53-10.71-13.36-14.81-20.8-3.99-7.56-7.55-15.42-10.81-23.31l-2.89,.82c.66,3.11,1.61,6.02,2.72,8.83,8.03,19.37,18.7,37.53,30.1,55.08h0Zm-38.46,42.49c-.05-13-.45-27.89-.93-40.92-.53-13.63-1.15-27.25-1.94-40.86,0,0-3.05,.25-3.05,.25,1.29,11.43,2.82,22.81,4.71,34.16,.93,5.67,1.98,11.33,3.2,16.95,1.38,5.55,2.35,11.38,5.06,16.47-2.14-5.31-2.74-11.11-3.68-16.73-.85-5.66-1.57-11.35-2.3-17.03-1.05-8.51-3.02-25.62-3.94-34.15l-3.05,.25c.32,6.81,.75,13.62,1.13,20.42,1.22,20.13,2.73,41.12,4.79,61.19h0Zm-15.81-101.94c-4.02,24.61-8.87,49.01-16.53,72.77,11.35-20.94,17.03-49.02,16.53-72.77h0Zm-26.1,72.35c4.28-8.25,7.9-16.8,11.1-25.53,3.06-8.93,6.17-17.75,6.49-27.37,0,0,.18-14.6,.18-14.6-1.53,6.77-3.91,18.25-5.98,24.77-3.2,10.43-7.02,20.77-13.2,29.85,10.02-10.99,15.31-25.47,18.97-39.69l-3.01-.33c-.14,4.37-1.08,8.88-2.17,13.31-3.22,12.93-8.15,26.87-12.38,39.6h0Zm-14.65-13.68c11.57-17.44,22.41-35.5,30.62-54.79,1.14-2.8,2.12-5.7,2.8-8.81,0,0-2.88-.85-2.88-.85-3.33,7.86-6.97,15.68-11.03,23.2-4.17,7.41-8.32,15.19-15.01,20.66,5.6-3.38,9.65-8.82,13.36-14.1,6.11-8.99,11.1-18.65,15.46-28.61,0,0-2.88-.85-2.88-.85-1.31,5.56-3.88,11.04-6.24,16.31-7.6,16.17-16.11,31.86-24.22,47.82h0Zm38.06,42.86c2.26-20.05,3.96-41.03,5.38-61.14,.45-6.8,.94-13.6,1.32-20.41,0,0-3.05-.28-3.05-.28-1,8.5-3.14,25.63-4.27,34.11-.78,5.68-1.56,11.35-2.46,17.01-1,5.61-1.65,11.4-3.84,16.69,2.77-5.07,3.79-10.88,5.22-16.42,1.27-5.61,2.38-11.26,3.36-16.92,2-11.33,3.63-22.69,5.03-34.11,0,0-3.05-.28-3.05-.28-.92,13.61-1.67,27.22-2.33,40.84-.6,13.01-1.15,27.92-1.32,40.91h0Zm-53.01-62.21c-4.75-1.05-6.61-6.01-6.6-10.41,.02-7.85,3.13-15.28,5.49-22.67,0,0-3.15,1.34-3.15,1.34-6.52,2.57-14.16,1.76-20.39-1.34-.55-.31-2.07-1.15-2.6-1.44-.55-.38-1.9-1.3-2.48-1.69-.97-.71-2.19-1.76-3.18-2.51,6.02,8.2,15.47,12.82,25.68,11,1.43-.28,2.76-.6,4.25-1.2,0,0-2.09-1.95-2.09-1.95-2.75,8.22-5.92,17.68-2.11,26.09,1.33,2.68,4.14,4.85,7.19,4.78h0Zm-27.05-43.98c2.81-10.09,13.76-17.56,22.64-22.15,0,0,3.22-1.64,3.22-1.64,1.96-.8,4.71-2.11,6.66-2.85,4.51-1.77,9.12-3.25,13.74-4.72,0,0-1.1-2.83-1.1-2.83-10.58,5.6-20.54,12.59-28.42,21.66-2.55,3.07-4.83,6.38-6.47,9.99,6.51-9.86,16.23-16.96,26.08-23.17,3.29-2.03,6.72-4,10.15-5.73,0,0-1.1-2.83-1.1-2.83-14.13,4.25-28.65,10.01-38.77,21.18-3.22,3.69-6.15,8.14-6.65,13.1h0Zm52.91-28.72c-12.7,4.76-24.46,12.43-33.32,22.78-2.89,3.57-5.39,7.49-7.28,11.74,0,0-3.77,8.47-3.77,8.47,7.3-8.04,15.33-16.29,23.49-23.42,6.03-5.21,12.21-10.34,19.47-13.8-7.76,2.32-14.6,7.1-20.97,11.99-6.4,4.98-12.31,10.46-17.94,16.32,0,0,2.54,1.65,2.54,1.65,3.57-7.98,9.33-14.76,15.87-20.56,6.71-5.85,14.08-10.87,21.9-15.17h0Zm2.9,16.96c-7.65,7-15.94,15.17-23.5,22.26-2.27,2.09-4.54,4.22-6.97,6.09-.65,.46-4.74,3.3-5.52,3.84,2.37-.18,6.72-.22,8.95-.95,10.88-3.2,19.68-11.2,26.54-19.93,3.43-4.28,6.37-9.07,8.99-13.86-1.37,1.72-2.72,3.45-4.04,5.19-8.63,10.59-21.16,23.89-35.17,26.19,0,0,.84,2.83,.84,2.83,3.07-2.1,5.71-4.78,8.33-7.37,7.63-7.69,14.81-15.8,21.55-24.28h0Zm-28.12,40.17c12.88-4.1,39.01-18.8,38.29-34.25-.45,2.2-1.38,4.16-2.57,5.94-3.65,5.38-8.81,9.43-13.95,13.38-6.1,4.62-15.31,10.58-21.77,14.92h0Zm-34.56-157.46c1.35-4.67,6.41-6.22,10.8-5.94,7.83,.51,15.05,4.07,22.28,6.89,0,0-1.14-3.23-1.14-3.23-2.15-6.66-.88-14.24,2.61-20.27,.34-.53,1.28-1.99,1.6-2.5,.41-.52,1.41-1.81,1.84-2.37,.77-.93,1.9-2.08,2.71-3.02-8.56,5.5-13.76,14.64-12.57,24.94,.19,1.45,.43,2.79,.93,4.31,0,0,2.07-1.96,2.07-1.96-8.03-3.26-17.28-7.01-25.9-3.73-2.75,1.16-5.1,3.83-5.22,6.87h0Zm45.58-24.26c9.9,3.44,16.67,14.83,20.7,23.97,0,0,1.44,3.32,1.44,3.32,.68,2.01,1.81,4.84,2.43,6.83,1.49,4.61,2.67,9.31,3.85,14.01,0,0,2.89-.92,2.89-.92-4.93-10.91-11.29-21.28-19.84-29.71-2.9-2.74-6.07-5.22-9.56-7.08,9.44,7.11,15.91,17.25,21.51,27.48,1.82,3.41,3.57,6.95,5.09,10.49,0,0,2.89-.92,2.89-.92-3.36-14.37-8.21-29.22-18.72-40.01-3.48-3.45-7.74-6.64-12.66-7.45h0Zm25.37,54.6c-3.96-12.97-10.88-25.19-20.66-34.68-3.38-3.11-7.14-5.85-11.26-8,0,0-8.22-4.29-8.22-4.29,7.57,7.79,15.31,16.31,21.91,24.91,4.82,6.35,9.56,12.83,12.56,20.29-1.84-7.89-6.17-15.02-10.66-21.67-4.57-6.7-9.68-12.94-15.17-18.92,0,0-1.81,2.44-1.81,2.44,7.74,4.06,14.15,10.24,19.53,17.12,5.43,7.07,9.97,14.73,13.78,22.8h0Zm-17.11,1.84c-6.51-8.07-14.15-16.85-20.75-24.84-1.94-2.4-3.93-4.79-5.64-7.33-.42-.68-2.99-4.94-3.48-5.74,.03,2.38-.2,6.72,.4,8.99,2.52,11.05,9.96,20.34,18.24,27.73,4.06,3.69,8.65,6.93,13.27,9.83-1.63-1.48-3.28-2.93-4.93-4.36-10.03-9.27-22.53-22.61-23.95-36.73,0,0-2.88,.66-2.88,.66,1.9,3.2,4.41,6,6.84,8.77,7.2,8.1,14.85,15.76,22.89,23.02h0Zm-38.34-30.56c3.29,13.11,16.34,40.1,31.8,40.34-2.16-.58-4.07-1.63-5.77-2.93-5.14-3.98-8.86-9.38-12.49-14.75-4.23-6.37-9.61-15.94-13.54-22.66h0Zm152.32-32.02c4.69,1.27,6.32,6.31,6.11,10.7-.38,7.84-3.84,15.12-6.53,22.39,0,0,3.21-1.19,3.21-1.19,6.63-2.26,14.23-1.1,20.3,2.28,.53,.34,2.01,1.25,2.53,1.56,.53,.4,1.83,1.38,2.4,1.8,.94,.75,2.11,1.86,3.06,2.66-5.63-8.47-14.86-13.52-25.14-12.18-1.44,.22-2.79,.47-4.3,1,0,0,2,2.04,2,2.04,3.13-8.09,6.73-17.38,3.32-25.96-1.21-2.74-3.91-5.04-6.96-5.11h0Zm24.98,45.19c-3.28,9.95-14.56,16.9-23.64,21.07,0,0-3.29,1.49-3.29,1.49-2,.71-4.81,1.88-6.79,2.54-4.59,1.56-9.26,2.82-13.95,4.07,0,0,.96,2.88,.96,2.88,10.83-5.1,21.1-11.63,29.4-20.31,2.69-2.94,5.12-6.15,6.93-9.68-6.96,9.55-17,16.18-27.13,21.94-3.39,1.87-6.9,3.68-10.41,5.26,0,0,.96,2.88,.96,2.88,14.31-3.58,29.08-8.67,39.71-19.35,3.39-3.53,6.52-7.85,7.25-12.78h0Zm-54.19,26.23c12.9-4.16,25.01-11.28,34.34-21.21,3.05-3.43,5.73-7.23,7.82-11.39,0,0,4.16-8.28,4.16-8.28-7.67,7.69-16.07,15.57-24.56,22.31-6.27,4.92-12.68,9.77-20.09,12.88,7.86-1.96,14.92-6.41,21.5-11,6.63-4.68,12.79-9.88,18.68-15.47,0,0-2.46-1.77-2.46-1.77-3.94,7.81-10.01,14.31-16.81,19.8-6.98,5.54-14.57,10.2-22.58,14.14h0Zm-2.11-17.07c7.97-6.64,16.62-14.42,24.51-21.14,2.37-1.98,4.73-4,7.24-5.76,.67-.43,4.89-3.07,5.69-3.58-2.38,.07-6.73-.1-8.98,.54-11.01,2.69-20.18,10.28-27.44,18.68-3.62,4.12-6.79,8.76-9.62,13.43,1.45-1.66,2.88-3.32,4.28-5,9.11-10.18,22.25-22.89,36.35-24.52,0,0-.7-2.87-.7-2.87-3.17,1.95-5.93,4.51-8.66,6.98-7.98,7.33-15.53,15.09-22.66,23.25h0Zm29.95-38.82c-13.06,3.49-39.84,16.97-39.83,32.43,.55-2.17,1.57-4.09,2.84-5.82,3.89-5.21,9.24-9.01,14.55-12.72,6.31-4.33,15.78-9.86,22.44-13.9h0Zm29.61,156.21c-1.49,4.63-6.59,6.03-10.97,5.61-7.81-.74-14.92-4.52-22.06-7.55,0,0,1.04,3.26,1.04,3.26,1.95,6.73,.45,14.26-3.21,20.18-.36,.52-1.34,1.95-1.67,2.45-.43,.51-1.46,1.77-1.91,2.31-.8,.9-1.96,2.02-2.79,2.93,8.72-5.24,14.19-14.22,13.32-24.56-.15-1.45-.34-2.8-.8-4.34,0,0-2.13,1.9-2.13,1.9,7.93,3.49,17.06,7.52,25.78,4.51,2.79-1.08,5.21-3.67,5.42-6.71h0Zm-46.29,22.88c-9.79-3.73-16.22-15.32-19.97-24.58,0,0-1.33-3.36-1.34-3.36-.62-2.03-1.66-4.89-2.22-6.9-1.35-4.66-2.39-9.38-3.43-14.12,0,0-2.92,.83-2.92,.83,4.6,11.06,10.65,21.61,18.94,30.3,2.82,2.82,5.91,5.4,9.35,7.36-9.22-7.39-15.39-17.72-20.67-28.11-1.71-3.47-3.36-7.06-4.77-10.64,0,0-2.92,.83-2.92,.83,2.92,14.46,7.33,29.45,17.51,40.56,3.38,3.55,7.54,6.87,12.44,7.82h0Zm-23.72-55.33c3.57,13.08,10.12,25.5,19.61,35.28,3.29,3.21,6.96,6.06,11.02,8.33,0,0,8.08,4.53,8.09,4.53-7.33-8.01-14.81-16.77-21.16-25.55-4.63-6.49-9.17-13.11-11.94-20.66,1.6,7.94,5.72,15.19,10.01,21.98,4.37,6.84,9.28,13.23,14.6,19.37,0,0,1.88-2.38,1.88-2.38-7.62-4.29-13.84-10.66-19.01-17.7-5.21-7.23-9.53-15.02-13.09-23.2h0Zm17.15-1.33c6.27,8.27,13.64,17.27,19.99,25.45,1.87,2.46,3.78,4.91,5.42,7.5,.39,.69,2.84,5.03,3.31,5.85,.04-2.38,.41-6.72-.13-9-2.18-11.12-9.34-20.63-17.4-28.26-3.95-3.81-8.44-7.18-12.97-10.23,1.59,1.53,3.19,3.02,4.8,4.5,9.75,9.57,21.84,23.27,22.83,37.43,0,0,2.9-.57,2.9-.57-1.81-3.25-4.23-6.13-6.57-8.97-6.95-8.31-14.37-16.2-22.19-23.7h0Zm37.4,31.7c-2.89-13.2-15.13-40.57-30.57-41.28,2.15,.65,4.02,1.76,5.68,3.1,5.02,4.13,8.58,9.64,12.04,15.12,4.03,6.5,9.13,16.22,12.85,23.06h0Zm-83.41-20.14c-.21,0-.43,0-.64,0-27.12-.34-48.91-22.69-48.56-49.81h.84s-.84,0-.84,0c.17-13.14,5.44-25.43,14.85-34.6,9.41-9.17,21.87-14.12,34.96-13.97,13.14,.17,25.42,5.44,34.6,14.85,9.17,9.41,14.13,21.82,13.96,34.96s-5.44,25.43-14.85,34.6c-9.25,9.02-21.42,13.97-34.32,13.97Zm-.03-96.69c-12.46,0-24.21,4.78-33.14,13.49-9.09,8.86-14.18,20.72-14.34,33.41-.33,26.19,20.71,47.77,46.9,48.1,.2,0,.41,0,.61,0,25.92,0,47.16-20.91,47.49-46.9,.16-12.69-4.63-24.68-13.49-33.76-8.86-9.09-20.72-14.18-33.41-14.34-.21,0-.41,0-.62,0Zm.03,80.65c-.14,0-.29,0-.43,0-18.27-.23-32.95-15.29-32.72-33.56,.11-8.85,3.67-17.13,10-23.31,6.34-6.18,14.7-9.49,23.56-9.41,8.85,.11,17.13,3.67,23.31,10s9.52,14.71,9.41,23.56h-.84s.84,0,.84,0c-.11,8.85-3.67,17.13-10,23.31-6.24,6.08-14.43,9.41-23.13,9.41Zm-.02-64.6c-8.25,0-16.03,3.16-21.95,8.93-6.02,5.87-9.39,13.72-9.5,22.13-.22,17.34,13.71,31.63,31.06,31.85,.14,0,.27,0,.41,0,8.25,0,16.03-3.16,21.95-8.93,6.02-5.87,9.39-13.72,9.5-22.13,.11-8.4-3.06-16.34-8.93-22.36-5.87-6.02-13.72-9.39-22.13-9.5-.14,0-.27,0-.41,0Z" style="fill:#fff;"/></g></svg>