<?xml version="1.0" encoding="UTF-8"?><svg id="b" xmlns="http://www.w3.org/2000/svg" viewBox="0 0 21.18 21.34"><g id="c"><g><g><path d="M20.97,12.03c-.18-.58-.5-1.17-1-1.65-1.48-1.46-3.81-1.43-5.51-.39-1.53,.93-2.47,2.45-2.78,4.2-.07,.41-.1,.82-.07,1.22,.24,.03,.48,.08,.72,.13,.04-.13,.08-.25,.13-.37,.54-1.1,1.57-1.93,2.71-2.36,.63-.24,1.32-.36,1.99-.3,1.14,.1,1.88,.69,2.54,1.58,.29,.37,.56,.8,.87,1.27h.17c.24-.5,.36-1.04,.4-1.59,.04-.55-.01-1.13-.2-1.71Z" style="fill:currentColor;"/><path d="M.21,12.03c.18-.58,.5-1.17,1-1.65,1.48-1.46,3.81-1.43,5.51-.39,1.53,.93,2.47,2.45,2.78,4.2,.07,.41,.1,.82,.07,1.22-.24,.03-.48,.08-.72,.13-.04-.13-.08-.25-.13-.37-.54-1.1-1.57-1.93-2.71-2.36-.63-.24-1.32-.36-1.99-.3-1.14,.1-1.88,.69-2.54,1.58-.29,.37-.56,.8-.87,1.27h-.17c-.24-.5-.36-1.04-.4-1.59-.04-.55,.01-1.13,.2-1.71Z" style="fill:currentColor;"/><path d="M14.49,4.81c-.25-.86-2.67-3.04-3.63-4.48l-.26-.31v-.02h0s0,0,0,0V.02l-.26,.31c-.95,1.44-3.38,3.62-3.63,4.48-.32,1.1-.16,2.47,.22,3.13,1.4,2.47,3.04,4.64,3.41,7.45h.55c.36-2.81,2.01-4.98,3.41-7.45,.38-.67,.54-2.03,.22-3.13Z" style="fill:currentColor;"/></g><circle cx="10.67" cy="18.6" r="2.74" style="fill:currentColor;"/></g></g></svg>